<?xml version="1.0" encoding="utf-8"?>
<!-- Generator: Adobe Illustrator 26.3.0, SVG Export Plug-In . SVG Version: 6.00 Build 0)  -->
<svg version="1.1" xmlns="http://www.w3.org/2000/svg" xmlns:xlink="http://www.w3.org/1999/xlink" x="0px" y="0px"
	 viewBox="0 0 56.9 50.6" style="enable-background:new 0 0 56.9 50.6;" xml:space="preserve">
<style type="text/css">
	.st0{display:none;}
	.st1{fill:#6C87BA;}
	.st2{fill:#FD9279;}
	.st3{fill:#989898;}
	.st4{fill:#545454;}
	.st5{display:inline;}
</style>
<g id="Layer_1" class="st0">
	
		<image style="display:inline;overflow:visible;" width="621" height="105" xlink:href="../../Capture.PNG"  transform="matrix(0.75 0 0 0.75 -369.9552 -3.875)">
	</image>
</g>
<g id="Layer_2">
	<g>
		<path class="st1" d="M53.4,28.5v14.8c-1.5,0-4,0-4.6,0c-0.9-0.1-1-1.1-1-1.1V28.5h-3.6v13.7c0,2.1,1.4,2.3,1.4,2.3h11.3v-0.4v-0.4
			V28.5H53.4z"/>
		<polygon class="st1" points="6.3,28.5 8.6,43.1 4.4,43.1 6,34.5 2.5,34.5 0,44.5 12.5,44.5 9.7,28.5 		"/>
		<rect x="13.2" y="38.1" class="st1" width="9.3" height="1.7"/>
		<rect x="34.3" y="38.1" class="st1" width="9.3" height="1.7"/>
		<path class="st1" d="M17.9,43.4c-1.1-0.1-0.8-0.9-0.8-0.9v-1.4l0-0.5h-3.8v0.5v2.1c0.1,1.1,1.4,1.3,1.4,1.3h6.3v-1.1
			C20.9,43.4,18.9,43.4,17.9,43.4z"/>
		<polygon class="st1" points="34.3,40.6 34.3,44.5 38.9,44.5 43.6,44.5 43.6,43.3 38.9,43.3 38.9,41.8 43.6,41.8 43.6,40.6 
			38.9,40.6 		"/>
		<path class="st1" d="M22.5,41.6c0,2.4,3.3,2.9,3.3,2.9h7v-1v-0.2v-1.5v-1.2h-3.7v1.2h2.2v1.5h-3.8c0,0-1.5-0.4-1.5-1.7
			s1.3-1.8,1.3-1.8h5.4v-1.7H26C26,38.1,22.5,39.2,22.5,41.6z"/>
	</g>
	<path class="st1" d="M16.9,20.5c0.4,0.3,0.8,0.6,1.1,1c-0.2,0.3-0.5,0.7-0.8,0.9c-0.4-0.4-0.7-0.7-1.1-1
		C16.4,21.1,16.6,20.8,16.9,20.5z"/>
	<path class="st1" d="M42.2,21.4c-0.4,0.3-0.7,0.6-1.1,1c-0.3-0.3-0.6-0.6-0.8-0.9c0.4-0.4,0.7-0.7,1.1-1
		C41.7,20.8,41.9,21.1,42.2,21.4z"/>
	<path class="st1" d="M39.6,17.2L39.6,17.2c2.5-0.5,3.9-0.6,5.9-0.6c1.2,0,2.1,0.2,2.7,0.5L47.7,18l0.6,0.8l0.2,0l1.2-1.6
		c-0.2-1.1-2-1.8-4.6-1.8c-1.4,0-3.6,0.2-6.9,0.9c-1,0.2-2,0.3-3.6,0.3h-1.1l0,1c1.4,0.1,5.1,0.5,6.1,0.6c4.6,0.8,7.8,2,7.8,3.3
		c0,1.6-2.6,2.6-6.5,3H17.1c-3.8-0.4-6.5-1.5-6.5-3c0-1.3,3.2-2.5,7.8-3.3c1-0.2,4.7-0.6,6.1-0.6l0-1h-1.1c-1.5,0-2.6-0.1-3.6-0.3
		c-3.3-0.6-5.5-0.9-6.9-0.9c-2.5,0-4.4,0.7-4.6,1.8l1.2,1.6l0.2,0l0.6-0.8L10,17.1c0.6-0.3,1.5-0.5,2.7-0.5c1.9,0,3.4,0.1,5.8,0.5
		l0,0c-5.2,0.6-9.5,2.5-9.5,4.9c0,2.4,3.4,3.7,8,4c0.7,0,1.4,0.1,2.2,0.1h19.7c0.7,0,1.5,0,2.2-0.1c4.5-0.3,8-1.6,8-4
		C49.1,19.7,44.8,17.8,39.6,17.2z"/>
	<path class="st1" d="M36.9,6.3L28.7,0l-8.2,6.3c0,0-1.2,3.5,1.4,4.3c0.4,0.1,1,0.2,1.7,0.3h10.1c0.7-0.1,1.3-0.2,1.7-0.3
		C38.1,9.8,36.9,6.3,36.9,6.3z M28.6,7.7c-1,0-1.7-0.8-1.7-1.7c0-0.7,0.4-1.3,1-1.5V2l0.7-0.6l0,0v0L29.3,2v2.5c0.6,0.3,1,0.9,1,1.5
		C30.3,7,29.6,7.7,28.6,7.7z"/>
	<path class="st2" d="M40.6,14c-0.9-0.7-2-1.3-3.4-1.8c-0.8-0.3-1.8-0.4-2.8-0.4c-0.8,0-1.4,0.2-2,0.4c-0.6,0.2-1.2,0.7-1.2,1.1
		c0,0.3,0.2,0.8,0.3,1.2c-0.9,0.3-1.5,0.7-2,1.2c-0.1,0.1-0.1,0.2-0.2,0.2v21.7h1.4V15.9c0.1-0.3,1.1-0.6,3.4-0.6c2,0,4,0.1,6,0.2
		c0.4-0.3,0.7-0.7,0.7-1C40.9,14.4,40.8,14.1,40.6,14z M38.5,14.4c-1.2-0.1-2.7-0.2-3.4-0.2c-1.1,0-2.2,0.1-3,0.2
		c0.2-0.2,0.4-0.5,0.5-0.9L32.6,13c0.4-0.1,0.9-0.1,1.3-0.1c2.1,0,3.4,0.7,4.7,1.4L38.5,14.4z"/>
	<rect x="39.7" y="28.3" class="st2" width="1.4" height="9.2"/>
	<rect x="37.4" y="28.3" class="st2" width="1.4" height="9.2"/>
	<rect x="19.6" y="28.3" class="st2" width="1.4" height="9.2"/>
	<rect x="17.2" y="28.3" class="st2" width="1.4" height="9.2"/>
	<path class="st2" d="M16.8,14.6c0,0.3,0.4,0.7,0.7,1c2-0.1,4-0.2,6-0.2c2.3,0,3.3,0.3,3.4,0.6v21.7h1.4V15.9
		c-0.1-0.1-0.1-0.2-0.2-0.2c-0.5-0.5-1.1-1-2-1.2c0.2-0.4,0.3-0.9,0.3-1.2c0-0.4-0.6-0.9-1.2-1.1c-0.6-0.2-1.3-0.4-2-0.4
		c-1,0-1.9,0.1-2.8,0.4C19,12.6,17.9,13.2,17,14C16.9,14.1,16.8,14.4,16.8,14.6z M19.1,14.2c1.2-0.7,2.6-1.4,4.7-1.4
		c0.4,0,0.9,0,1.3,0.1L25,13.4c0.1,0.3,0.4,0.7,0.5,0.9c-0.8-0.1-1.9-0.2-3-0.2c-0.7,0-2.2,0.1-3.4,0.2L19.1,14.2z"/>
	<path class="st3" d="M51.4,22.4l-1,0.1c2,1,3,1.8,3,2.4c0,1-2.6,1.5-7.7,1.6H12.5c-5.1-0.1-7.7-0.6-7.7-1.6c0-0.6,1-1.4,3-2.4
		l-1-0.1c-2.7,1.3-4,2.4-4,3.3c0,1.2,3.3,1.9,9.7,1.9h33.2c6.5-0.1,9.7-0.7,9.7-1.9C55.4,24.9,54.1,23.8,51.4,22.4z"/>
	<g>
		<path class="st4" d="M0.6,50.6L0.6,50.6c0.1-0.1,0.1-0.1,0.1-0.2c0-0.1,0-0.1-0.1-0.2H0.3c0,0.1,0,0.1-0.1,0.2
			c0,0.1,0,0.1,0.1,0.1v0.1h-0.4v-0.1c0.1,0,0.1,0,0.2-0.2l0.4-0.9l0.1,0c0.1,0.3,0.2,0.6,0.3,0.9C1,50.5,1,50.5,1.1,50.5v0.1H0.6z
			 M0.5,49.7c-0.1,0.1-0.1,0.2-0.1,0.4h0.3L0.5,49.7z"/>
		<path class="st4" d="M1.7,50c0-0.1-0.1-0.2-0.2-0.2c0,0-0.1,0-0.1,0.1c0,0.1,0,0.1,0.1,0.1c0.1,0.1,0.2,0.1,0.2,0.3
			c0,0.2-0.2,0.3-0.3,0.3c-0.1,0-0.2,0-0.2-0.1c0,0,0-0.2,0-0.2l0.1,0c0,0.1,0.1,0.2,0.2,0.2c0.1,0,0.1,0,0.1-0.1
			c0-0.1,0-0.1-0.1-0.1c-0.1-0.1-0.2-0.1-0.2-0.3c0-0.1,0.1-0.2,0.3-0.2c0.1,0,0.1,0,0.2,0C1.7,49.9,1.8,50,1.7,50L1.7,50z"/>
		<path class="st4" d="M2.4,50c0-0.1-0.1-0.2-0.2-0.2c0,0-0.1,0-0.1,0.1c0,0.1,0,0.1,0.1,0.1c0.1,0.1,0.2,0.1,0.2,0.3
			c0,0.2-0.2,0.3-0.3,0.3c-0.1,0-0.2,0-0.2-0.1c0,0,0-0.2,0-0.2l0.1,0c0,0.1,0.1,0.2,0.2,0.2c0.1,0,0.1,0,0.1-0.1
			c0-0.1,0-0.1-0.1-0.1C2,50.2,1.9,50.2,1.9,50c0-0.1,0.1-0.2,0.3-0.2c0.1,0,0.1,0,0.2,0C2.4,49.9,2.4,50,2.4,50L2.4,50z"/>
		<path class="st4" d="M3,49.8c0.2,0,0.4,0.2,0.4,0.4c0,0.3-0.2,0.4-0.4,0.4c-0.3,0-0.4-0.2-0.4-0.4C2.6,49.9,2.8,49.8,3,49.8z
			 M3,49.9c-0.1,0-0.1,0.1-0.1,0.3c0,0.2,0.1,0.4,0.2,0.4c0.1,0,0.1,0,0.1-0.3C3.2,50,3.1,49.9,3,49.9z"/>
		<path class="st4" d="M4.3,50.4c-0.1,0.1-0.2,0.2-0.3,0.2c-0.2,0-0.4-0.2-0.4-0.4c0-0.1,0.1-0.3,0.2-0.3c0.1-0.1,0.2-0.1,0.3-0.1
			c0.1,0,0.1,0,0.2,0c0,0,0,0,0,0.1c0,0-0.1,0.1-0.1,0.1c0,0,0,0,0,0C4,49.9,4,49.9,3.9,49.9c-0.1,0-0.2,0.1-0.2,0.3
			c0,0.2,0.2,0.3,0.2,0.3C4.1,50.4,4.2,50.4,4.3,50.4L4.3,50.4z"/>
		<path class="st4" d="M4.3,50.6L4.3,50.6c0.1-0.1,0.1-0.1,0.1-0.2V50c0-0.1,0-0.1-0.1-0.1v-0.1c0.1,0,0.2,0,0.3-0.1
			c0,0.1,0,0.1,0,0.2v0.4c0,0.1,0,0.1,0.1,0.1v0.1H4.3z M4.5,49.7c-0.1,0-0.1-0.1-0.1-0.1c0-0.1,0.1-0.1,0.1-0.1
			c0.1,0,0.1,0.1,0.1,0.1C4.7,49.6,4.6,49.7,4.5,49.7z"/>
		<path class="st4" d="M5.5,50.6c0,0-0.1,0-0.1,0c0,0,0,0,0-0.1c-0.1,0-0.2,0.1-0.2,0.1c-0.2,0-0.2-0.1-0.2-0.2c0-0.1,0-0.1,0.1-0.2
			c0.1,0,0.2-0.1,0.3-0.1V50c0-0.1,0-0.1-0.1-0.1c0,0-0.1,0-0.1,0c0,0,0,0.1,0,0.1c0,0,0,0.1-0.1,0.1c0,0-0.1,0-0.1-0.1
			c0,0,0-0.1,0.1-0.1c0.1-0.1,0.2-0.1,0.3-0.1c0.1,0,0.1,0,0.2,0.1C5.5,49.9,5.5,50,5.5,50v0.3c0,0.1,0,0.1,0.1,0.1c0,0,0,0,0.1,0
			l0,0.1L5.5,50.6z M5.3,50.2C5.3,50.2,5.2,50.2,5.3,50.2c-0.2,0.1-0.2,0.1-0.2,0.2c0,0.1,0.1,0.1,0.1,0.1c0,0,0,0,0.1,0
			C5.3,50.4,5.3,50.2,5.3,50.2z"/>
		<path class="st4" d="M6.1,50.6C6,50.6,6,50.6,6.1,50.6c-0.2,0-0.3,0-0.3-0.2v-0.5H5.7l0,0l0.1-0.1h0.1v-0.1c0.1,0,0.1-0.1,0.2-0.1
			l0,0c0,0,0,0.1,0,0.3h0.2c0,0,0,0.1,0,0.1H6v0.4c0,0.1,0.1,0.2,0.1,0.2c0,0,0.1,0,0.1,0l0,0.1L6.1,50.6z"/>
		<path class="st4" d="M6.3,50.6L6.3,50.6c0.1-0.1,0.1-0.1,0.1-0.2V50c0-0.1,0-0.1-0.1-0.1v-0.1c0.1,0,0.2,0,0.3-0.1
			c0,0.1,0,0.1,0,0.2v0.4c0,0.1,0,0.1,0.1,0.1v0.1H6.3z M6.5,49.7c-0.1,0-0.1-0.1-0.1-0.1c0-0.1,0.1-0.1,0.1-0.1
			c0.1,0,0.1,0.1,0.1,0.1C6.6,49.6,6.5,49.7,6.5,49.7z"/>
		<path class="st4" d="M7.2,49.8c0.2,0,0.4,0.2,0.4,0.4c0,0.3-0.2,0.4-0.4,0.4c-0.3,0-0.4-0.2-0.4-0.4C6.8,49.9,7,49.8,7.2,49.8z
			 M7.2,49.9c-0.1,0-0.1,0.1-0.1,0.3c0,0.2,0.1,0.4,0.2,0.4c0.1,0,0.1,0,0.1-0.3C7.4,50,7.3,49.9,7.2,49.9z"/>
		<path class="st4" d="M8.2,50.6L8.2,50.6c0.1-0.1,0.1-0.1,0.1-0.2v-0.3c0-0.1-0.1-0.2-0.1-0.2c0,0-0.1,0-0.1,0.1v0.4
			C8.1,50.5,8.1,50.5,8.2,50.6L8.2,50.6H7.7v-0.1c0.1,0,0.1,0,0.1-0.1V50c0-0.1,0-0.1-0.1-0.1v-0.1c0.1,0,0.2,0,0.3-0.1
			c0,0,0,0.1,0,0.1c0,0,0.1-0.1,0.1-0.1c0.1,0,0.1,0,0.1,0c0.1,0,0.2,0.1,0.2,0.3v0.3c0,0.1,0,0.1,0.1,0.1v0.1H8.2z"/>
		<path class="st4" d="M10.1,49.7c0-0.1-0.1-0.1-0.1-0.2c0,0,0-0.1-0.1-0.1H9.8v0.8c0,0.1,0,0.2,0.2,0.2v0.1H9.3v-0.1
			c0.1,0,0.2,0,0.2-0.2v-0.8H9.4c-0.1,0-0.1,0-0.2,0.1c0,0,0,0.1-0.1,0.2H9.1c0-0.1,0-0.3,0-0.3h0.1c0,0,0,0,0.1,0H10
			c0,0,0.1,0,0.1,0h0.1C10.1,49.5,10.2,49.6,10.1,49.7L10.1,49.7z"/>
		<path class="st4" d="M11.1,50.5c-0.1,0-0.2,0-0.3,0.1c0,0,0-0.1,0-0.1c-0.1,0.1-0.1,0.1-0.2,0.1c-0.1,0-0.2-0.1-0.2-0.3V50
			c0-0.1,0-0.1-0.1-0.1l0,0v-0.1c0.1,0,0.2,0,0.3,0c0,0.1,0,0.2,0,0.3v0.3c0,0.1,0.1,0.2,0.1,0.2c0,0,0.1,0,0.1-0.1V50
			c0-0.1,0-0.1-0.1-0.1l-0.1,0v-0.1c0.1,0,0.3,0,0.3,0v0.6C11,50.5,11,50.5,11.1,50.5L11.1,50.5L11.1,50.5z"/>
		<path class="st4" d="M11.7,50.6L11.7,50.6c0.1-0.1,0.1-0.1,0.1-0.2v-0.3c0-0.1-0.1-0.2-0.1-0.2c0,0-0.1,0-0.1,0.1v0.4
			C11.5,50.5,11.5,50.5,11.7,50.6L11.7,50.6h-0.5v-0.1c0.1,0,0.1,0,0.1-0.1V50c0-0.1,0-0.1-0.1-0.1v-0.1c0.1,0,0.2,0,0.3-0.1
			c0,0,0,0.1,0,0.1c0,0,0.1-0.1,0.1-0.1c0.1,0,0.1,0,0.1,0c0.1,0,0.2,0.1,0.2,0.3v0.3c0,0.1,0,0.1,0.1,0.1v0.1H11.7z"/>
		<path class="st4" d="M12.2,50.6L12.2,50.6c0.1-0.1,0.1-0.1,0.1-0.2V50c0-0.1,0-0.1-0.1-0.1v-0.1c0.1,0,0.2,0,0.3-0.1
			c0,0.1,0,0.1,0,0.2v0.4c0,0.1,0,0.1,0.1,0.1v0.1H12.2z M12.4,49.7c-0.1,0-0.1-0.1-0.1-0.1c0-0.1,0.1-0.1,0.1-0.1
			c0.1,0,0.1,0.1,0.1,0.1C12.5,49.6,12.5,49.7,12.4,49.7z"/>
		<path class="st4" d="M13.2,50c0-0.1-0.1-0.2-0.2-0.2c0,0-0.1,0-0.1,0.1c0,0.1,0,0.1,0.1,0.1c0.1,0.1,0.2,0.1,0.2,0.3
			c0,0.2-0.2,0.3-0.3,0.3c-0.1,0-0.2,0-0.2-0.1c0,0,0-0.2,0-0.2l0.1,0c0,0.1,0.1,0.2,0.2,0.2c0.1,0,0.1,0,0.1-0.1
			c0-0.1,0-0.1-0.1-0.1c-0.1-0.1-0.2-0.1-0.2-0.3c0-0.1,0.1-0.2,0.3-0.2c0.1,0,0.1,0,0.2,0C13.2,49.9,13.2,50,13.2,50L13.2,50z"/>
		<path class="st4" d="M13.4,50.6L13.4,50.6c0.1-0.1,0.1-0.1,0.1-0.2V50c0-0.1,0-0.1-0.1-0.1v-0.1c0.1,0,0.2,0,0.3-0.1
			c0,0.1,0,0.1,0,0.2v0.4c0,0.1,0,0.1,0.1,0.1v0.1H13.4z M13.6,49.7c-0.1,0-0.1-0.1-0.1-0.1c0-0.1,0.1-0.1,0.1-0.1
			c0.1,0,0.1,0.1,0.1,0.1C13.7,49.6,13.7,49.7,13.6,49.7z"/>
		<path class="st4" d="M14.6,50.4c-0.1,0.2-0.2,0.2-0.3,0.2c-0.2,0-0.4-0.2-0.4-0.4c0-0.1,0.1-0.2,0.1-0.3c0.1-0.1,0.2-0.1,0.3-0.1
			c0.2,0,0.3,0.1,0.3,0.3c0,0,0,0.1,0,0.1c0,0-0.3,0-0.5,0c0,0.2,0.1,0.3,0.2,0.3C14.5,50.4,14.5,50.4,14.6,50.4L14.6,50.4z
			 M14.3,49.9c-0.1,0-0.1,0.1-0.1,0.2c0.1,0,0.1,0,0.2,0c0,0,0,0,0,0C14.4,49.9,14.4,49.9,14.3,49.9z"/>
		<path class="st4" d="M15.2,50.6L15.2,50.6c0.1-0.1,0.1-0.1,0.1-0.2v-0.3c0-0.1-0.1-0.2-0.1-0.2c0,0-0.1,0-0.1,0.1v0.4
			C15.1,50.5,15.1,50.5,15.2,50.6L15.2,50.6h-0.5v-0.1c0.1,0,0.1,0,0.1-0.1V50c0-0.1,0-0.1-0.1-0.1v-0.1c0.1,0,0.2,0,0.3-0.1
			c0,0,0,0.1,0,0.1c0,0,0.1-0.1,0.1-0.1c0.1,0,0.1,0,0.1,0c0.1,0,0.2,0.1,0.2,0.3v0.3c0,0.1,0,0.1,0.1,0.1v0.1H15.2z"/>
		<path class="st4" d="M16.2,50.6L16.2,50.6c0.1-0.1,0.1-0.1,0.1-0.2v-0.3c0-0.1-0.1-0.2-0.1-0.2c0,0-0.1,0-0.1,0.1v0.4
			C16.1,50.5,16.1,50.5,16.2,50.6L16.2,50.6h-0.5v-0.1c0.1,0,0.1,0,0.1-0.1V50c0-0.1,0-0.1-0.1-0.1v-0.1c0.1,0,0.2,0,0.3-0.1
			c0,0,0,0.1,0,0.1c0,0,0.1-0.1,0.1-0.1c0.1,0,0.1,0,0.1,0c0.1,0,0.2,0.1,0.2,0.3v0.3c0,0.1,0,0.1,0.1,0.1v0.1H16.2z"/>
		<path class="st4" d="M17.4,50.4c-0.1,0.2-0.2,0.2-0.3,0.2c-0.2,0-0.4-0.2-0.4-0.4c0-0.1,0.1-0.2,0.1-0.3c0.1-0.1,0.2-0.1,0.3-0.1
			c0.2,0,0.3,0.1,0.3,0.3c0,0,0,0.1,0,0.1c0,0-0.3,0-0.5,0c0,0.2,0.1,0.3,0.2,0.3C17.3,50.4,17.3,50.4,17.4,50.4L17.4,50.4z
			 M17.1,49.9c-0.1,0-0.1,0.1-0.1,0.2c0.1,0,0.1,0,0.2,0c0,0,0,0,0,0C17.2,49.9,17.2,49.9,17.1,49.9z"/>
		<path class="st4" d="M18.8,50.5c0,0-0.2,0-0.3,0.1c0,0,0-0.1,0-0.1c0,0-0.1,0-0.1,0.1c0,0-0.1,0-0.1,0c-0.1,0-0.4-0.1-0.4-0.4
			c0-0.2,0.2-0.4,0.5-0.4c0,0,0,0,0.1,0v-0.2c0-0.1,0-0.1-0.1-0.1v-0.1c0.1,0,0.3,0,0.3-0.1c0,0.1,0,0.1,0,0.2v0.8
			C18.7,50.5,18.7,50.5,18.8,50.5L18.8,50.5L18.8,50.5z M18.5,49.9c0,0-0.1-0.1-0.1-0.1c-0.1,0-0.2,0-0.2,0.3c0,0.2,0.1,0.3,0.2,0.3
			c0,0,0.1,0,0.1,0V49.9z"/>
		<path class="st4" d="M19.6,50.4c-0.1,0.2-0.2,0.2-0.3,0.2c-0.2,0-0.4-0.2-0.4-0.4c0-0.1,0.1-0.2,0.1-0.3c0.1-0.1,0.2-0.1,0.3-0.1
			c0.2,0,0.3,0.1,0.3,0.3c0,0,0,0.1,0,0.1c0,0-0.3,0-0.5,0c0,0.2,0.1,0.3,0.2,0.3C19.4,50.4,19.5,50.4,19.6,50.4L19.6,50.4z
			 M19.3,49.9c-0.1,0-0.1,0.1-0.1,0.2c0.1,0,0.1,0,0.2,0c0,0,0,0,0,0C19.4,49.9,19.4,49.9,19.3,49.9z"/>
		<path class="st4" d="M20.2,50c0-0.1-0.1-0.2-0.2-0.2c0,0-0.1,0-0.1,0.1c0,0.1,0,0.1,0.1,0.1c0.1,0.1,0.2,0.1,0.2,0.3
			c0,0.2-0.2,0.3-0.3,0.3c-0.1,0-0.2,0-0.2-0.1c0,0,0-0.2,0-0.2l0.1,0c0,0.1,0.1,0.2,0.2,0.2c0.1,0,0.1,0,0.1-0.1
			c0-0.1,0-0.1-0.1-0.1c-0.1-0.1-0.2-0.1-0.2-0.3c0-0.1,0.1-0.2,0.3-0.2c0.1,0,0.1,0,0.2,0C20.2,49.9,20.3,50,20.2,50L20.2,50z"/>
		<path class="st4" d="M22,50.1c-0.1,0-0.1,0-0.1,0.1v0.1c0,0.1,0,0.1,0,0.2c-0.1,0-0.3,0.1-0.4,0.1c-0.4,0-0.6-0.3-0.6-0.6
			c0-0.4,0.3-0.6,0.7-0.6c0.1,0,0.3,0,0.4,0c0,0.1,0,0.2,0,0.3l-0.1,0c0-0.1-0.1-0.2-0.2-0.3c0,0-0.1,0-0.1,0
			c-0.2,0-0.4,0.2-0.4,0.5c0,0.3,0.1,0.6,0.4,0.6c0,0,0.1,0,0.1,0c0,0,0,0,0-0.1v-0.2c0-0.1,0-0.1-0.2-0.2V50L22,50.1L22,50.1z"/>
		<path class="st4" d="M22.8,50.4c-0.1,0.2-0.2,0.2-0.3,0.2c-0.2,0-0.4-0.2-0.4-0.4c0-0.1,0.1-0.2,0.1-0.3c0.1-0.1,0.2-0.1,0.3-0.1
			c0.2,0,0.3,0.1,0.3,0.3c0,0,0,0.1,0,0.1c0,0-0.3,0-0.5,0c0,0.2,0.1,0.3,0.2,0.3C22.7,50.4,22.7,50.4,22.8,50.4L22.8,50.4z
			 M22.5,49.9c-0.1,0-0.1,0.1-0.1,0.2c0.1,0,0.1,0,0.2,0c0,0,0,0,0,0C22.6,49.9,22.6,49.9,22.5,49.9z"/>
		<path class="st4" d="M23.4,50c0-0.1-0.1-0.2-0.2-0.2c0,0-0.1,0-0.1,0.1c0,0.1,0,0.1,0.1,0.1c0.1,0.1,0.2,0.1,0.2,0.3
			c0,0.2-0.2,0.3-0.3,0.3c-0.1,0-0.2,0-0.2-0.1c0,0,0-0.2,0-0.2l0.1,0c0,0.1,0.1,0.2,0.2,0.2c0.1,0,0.1,0,0.1-0.1
			c0-0.1,0-0.1-0.1-0.1C23.1,50.2,23,50.2,23,50c0-0.1,0.1-0.2,0.3-0.2c0.1,0,0.1,0,0.2,0C23.5,49.9,23.5,50,23.4,50L23.4,50z"/>
		<path class="st4" d="M24,50.6C24,50.6,23.9,50.6,24,50.6c-0.2,0-0.3,0-0.3-0.2v-0.5h-0.1l0,0l0.1-0.1h0.1v-0.1
			c0.1,0,0.1-0.1,0.2-0.1l0,0c0,0,0,0.1,0,0.3h0.2c0,0,0,0.1,0,0.1h-0.2v0.4c0,0.1,0.1,0.2,0.1,0.2c0,0,0.1,0,0.1,0l0,0.1L24,50.6z"
			/>
		<path class="st4" d="M24.2,50.6L24.2,50.6c0.1-0.1,0.1-0.1,0.1-0.2V50c0-0.1,0-0.1-0.1-0.1v-0.1c0.1,0,0.2,0,0.3-0.1
			c0,0.1,0,0.1,0,0.2v0.4c0,0.1,0,0.1,0.1,0.1v0.1H24.2z M24.4,49.7c-0.1,0-0.1-0.1-0.1-0.1c0-0.1,0.1-0.1,0.1-0.1
			c0.1,0,0.1,0.1,0.1,0.1C24.5,49.6,24.5,49.7,24.4,49.7z"/>
		<path class="st4" d="M25.1,49.8c0.2,0,0.4,0.2,0.4,0.4c0,0.3-0.2,0.4-0.4,0.4c-0.3,0-0.4-0.2-0.4-0.4
			C24.7,49.9,24.9,49.8,25.1,49.8z M25.1,49.9c-0.1,0-0.1,0.1-0.1,0.3c0,0.2,0.1,0.4,0.2,0.4c0.1,0,0.1,0,0.1-0.3
			C25.3,50,25.2,49.9,25.1,49.9z"/>
		<path class="st4" d="M26.2,50.6L26.2,50.6c0.1-0.1,0.1-0.1,0.1-0.2v-0.3c0-0.1-0.1-0.2-0.1-0.2c0,0-0.1,0-0.1,0.1v0.4
			C26,50.5,26,50.5,26.2,50.6L26.2,50.6h-0.5v-0.1c0.1,0,0.1,0,0.1-0.1V50c0-0.1,0-0.1-0.1-0.1v-0.1c0.1,0,0.2,0,0.3-0.1
			c0,0,0,0.1,0,0.1c0,0,0.1-0.1,0.1-0.1c0.1,0,0.1,0,0.1,0c0.1,0,0.2,0.1,0.2,0.3v0.3c0,0.1,0,0.1,0.1,0.1v0.1H26.2z"/>
		<path class="st4" d="M27.2,50.6L27.2,50.6c0.1-0.1,0.1-0.1,0.1-0.2v-0.3c0-0.1-0.1-0.2-0.1-0.2c0,0-0.1,0-0.1,0.1v0.4
			C27,50.5,27,50.5,27.2,50.6L27.2,50.6h-0.5v-0.1c0.1,0,0.1,0,0.1-0.1V50c0-0.1,0-0.1-0.1-0.1v-0.1c0.1,0,0.2,0,0.3-0.1
			c0,0,0,0.1,0,0.1c0,0,0.1-0.1,0.1-0.1c0.1,0,0.1,0,0.1,0c0.1,0,0.2,0.1,0.2,0.3v0.3c0,0.1,0,0.1,0.1,0.1v0.1H27.2z"/>
		<path class="st4" d="M28.2,50.6c0,0-0.1,0-0.1,0c0,0,0,0,0-0.1c-0.1,0-0.2,0.1-0.2,0.1c-0.2,0-0.2-0.1-0.2-0.2
			c0-0.1,0-0.1,0.1-0.2c0.1,0,0.2-0.1,0.3-0.1V50c0-0.1,0-0.1-0.1-0.1c0,0-0.1,0-0.1,0c0,0,0,0.1,0,0.1c0,0,0,0.1-0.1,0.1
			c0,0-0.1,0-0.1-0.1c0,0,0-0.1,0.1-0.1c0.1-0.1,0.2-0.1,0.3-0.1c0.1,0,0.1,0,0.2,0.1c0.1,0.1,0.1,0.1,0.1,0.2v0.3
			c0,0.1,0,0.1,0.1,0.1c0,0,0,0,0.1,0l0,0.1L28.2,50.6z M28.1,50.2C28,50.2,28,50.2,28.1,50.2c-0.2,0.1-0.2,0.1-0.2,0.2
			c0,0.1,0.1,0.1,0.1,0.1c0,0,0,0,0.1,0C28.1,50.4,28.1,50.2,28.1,50.2z"/>
		<path class="st4" d="M28.5,50.6L28.5,50.6c0.1-0.1,0.1-0.1,0.1-0.2V50c0-0.1,0-0.1-0.1-0.1v-0.1c0.1,0,0.2,0,0.3-0.1
			c0,0.1,0,0.1,0,0.2v0.4c0,0.1,0,0.1,0.1,0.1v0.1H28.5z M28.7,49.7c-0.1,0-0.1-0.1-0.1-0.1c0-0.1,0.1-0.1,0.1-0.1
			c0.1,0,0.1,0.1,0.1,0.1C28.8,49.6,28.8,49.7,28.7,49.7z"/>
		<path class="st4" d="M29.5,50.6H29v-0.1c0.1,0,0.1,0,0.1-0.1V50c0-0.1,0-0.1-0.1-0.1v-0.1c0.1,0,0.2,0,0.3-0.1c0,0.1,0,0.1,0,0.2
			c0.1-0.1,0.1-0.2,0.2-0.2c0.1,0,0.1,0,0.1,0.1c0,0.1-0.1,0.1-0.1,0.1c0,0,0,0-0.1,0c0,0-0.1-0.1-0.1-0.1c0,0-0.1,0-0.1,0.1v0.3
			C29.3,50.5,29.3,50.5,29.5,50.6L29.5,50.6z"/>
		<path class="st4" d="M30.4,50.4c-0.1,0.2-0.2,0.2-0.3,0.2c-0.2,0-0.4-0.2-0.4-0.4c0-0.1,0.1-0.2,0.1-0.3c0.1-0.1,0.2-0.1,0.3-0.1
			c0.2,0,0.3,0.1,0.3,0.3c0,0,0,0.1,0,0.1c0,0-0.3,0-0.5,0c0,0.2,0.1,0.3,0.2,0.3C30.2,50.4,30.3,50.4,30.4,50.4L30.4,50.4z
			 M30.1,49.9c-0.1,0-0.1,0.1-0.1,0.2c0.1,0,0.1,0,0.2,0c0,0,0,0,0,0C30.2,49.9,30.2,49.9,30.1,49.9z"/>
		<path class="st4" d="M31,50c0-0.1-0.1-0.2-0.2-0.2c0,0-0.1,0-0.1,0.1c0,0.1,0,0.1,0.1,0.1c0.1,0.1,0.2,0.1,0.2,0.3
			c0,0.2-0.2,0.3-0.3,0.3c-0.1,0-0.2,0-0.2-0.1c0,0,0-0.2,0-0.2l0.1,0c0,0.1,0.1,0.2,0.2,0.2c0.1,0,0.1,0,0.1-0.1
			c0-0.1,0-0.1-0.1-0.1c-0.1-0.1-0.2-0.1-0.2-0.3c0-0.1,0.1-0.2,0.3-0.2c0.1,0,0.1,0,0.2,0C31,49.9,31.1,50,31,50L31,50z"/>
		<path class="st4" d="M32.5,50.5c0,0-0.2,0-0.3,0.1c0,0,0-0.1,0-0.1c0,0-0.1,0-0.1,0.1c0,0-0.1,0-0.1,0c-0.1,0-0.4-0.1-0.4-0.4
			c0-0.2,0.2-0.4,0.5-0.4c0,0,0,0,0.1,0v-0.2c0-0.1,0-0.1-0.1-0.1v-0.1c0.1,0,0.3,0,0.3-0.1c0,0.1,0,0.1,0,0.2v0.8
			C32.4,50.5,32.4,50.5,32.5,50.5L32.5,50.5L32.5,50.5z M32.2,49.9c0,0-0.1-0.1-0.1-0.1c-0.1,0-0.2,0-0.2,0.3c0,0.2,0.1,0.3,0.2,0.3
			c0,0,0.1,0,0.1,0V49.9z"/>
		<path class="st4" d="M33.3,50.4c-0.1,0.2-0.2,0.2-0.3,0.2c-0.2,0-0.4-0.2-0.4-0.4c0-0.1,0.1-0.2,0.1-0.3c0.1-0.1,0.2-0.1,0.3-0.1
			c0.2,0,0.3,0.1,0.3,0.3c0,0,0,0.1,0,0.1c0,0-0.3,0-0.5,0c0,0.2,0.1,0.3,0.2,0.3C33.1,50.4,33.2,50.4,33.3,50.4L33.3,50.4z
			 M33,49.9c-0.1,0-0.1,0.1-0.1,0.2c0.1,0,0.1,0,0.2,0c0,0,0,0,0,0C33.1,49.9,33,49.9,33,49.9z"/>
		<path class="st4" d="M33.9,50c0-0.1-0.1-0.2-0.2-0.2c0,0-0.1,0-0.1,0.1c0,0.1,0,0.1,0.1,0.1c0.1,0.1,0.2,0.1,0.2,0.3
			c0,0.2-0.2,0.3-0.3,0.3c-0.1,0-0.2,0-0.2-0.1c0,0,0-0.2,0-0.2l0.1,0c0,0.1,0.1,0.2,0.2,0.2c0.1,0,0.1,0,0.1-0.1
			c0-0.1,0-0.1-0.1-0.1c-0.1-0.1-0.2-0.1-0.2-0.3c0-0.1,0.1-0.2,0.3-0.2c0.1,0,0.1,0,0.2,0C33.9,49.9,33.9,50,33.9,50L33.9,50z"/>
		<path class="st4" d="M35.5,50.3c0,0-0.1,0.2-0.1,0.3h-0.9v-0.1c0.2,0,0.2,0,0.2-0.2v-0.7c0-0.1,0-0.2-0.1-0.2v-0.1h0.6
			c0.2,0,0.2,0,0.3,0c0,0,0,0.2,0,0.3l-0.1,0c0-0.1,0-0.1-0.1-0.2c0,0-0.1,0-0.1,0H35c-0.1,0-0.1,0-0.1,0.1V50h0.2
			c0.1,0,0.1,0,0.1-0.2h0.1v0.4h-0.1c0-0.1,0-0.2-0.1-0.2h-0.2v0.3c0,0.1,0,0.2,0.1,0.2h0.1c0.1,0,0.1,0,0.2-0.1
			C35.3,50.4,35.4,50.3,35.5,50.3L35.5,50.3z"/>
		<path class="st4" d="M35.9,50.6C35.9,50.6,35.8,50.6,35.9,50.6c-0.2,0-0.3,0-0.3-0.2v-0.5h-0.1l0,0l0.1-0.1h0.1v-0.1
			c0.1,0,0.1-0.1,0.2-0.1l0,0c0,0,0,0.1,0,0.3H36c0,0,0,0.1,0,0.1h-0.2v0.4c0,0.1,0.1,0.2,0.1,0.2c0,0,0.1,0,0.1,0l0,0.1L35.9,50.6z
			"/>
		<path class="st4" d="M36.7,50.6c0,0-0.1,0-0.1,0c0,0,0,0,0-0.1c-0.1,0-0.2,0.1-0.2,0.1c-0.2,0-0.2-0.1-0.2-0.2
			c0-0.1,0-0.1,0.1-0.2c0.1,0,0.2-0.1,0.3-0.1V50c0-0.1,0-0.1-0.1-0.1c0,0-0.1,0-0.1,0c0,0,0,0.1,0,0.1c0,0,0,0.1-0.1,0.1
			c0,0-0.1,0-0.1-0.1c0,0,0-0.1,0.1-0.1c0.1-0.1,0.2-0.1,0.3-0.1c0.1,0,0.1,0,0.2,0.1c0.1,0.1,0.1,0.1,0.1,0.2v0.3
			c0,0.1,0,0.1,0.1,0.1c0,0,0,0,0.1,0l0,0.1L36.7,50.6z M36.5,50.2C36.5,50.2,36.5,50.2,36.5,50.2c-0.2,0.1-0.2,0.1-0.2,0.2
			c0,0.1,0.1,0.1,0.1,0.1c0,0,0,0,0.1,0C36.5,50.4,36.5,50.2,36.5,50.2z"/>
		<path class="st4" d="M37.3,49.8c0.1,0,0.1,0,0.1,0c0.2,0,0.4,0.2,0.4,0.4c0,0.2-0.2,0.5-0.5,0.5c-0.1,0-0.2,0-0.3-0.1
			c0,0,0-0.1,0-0.1v-0.8c0-0.1,0-0.1-0.1-0.1v-0.1c0.1,0,0.2,0,0.3-0.1c0,0.1,0,0.1,0,0.2L37.3,49.8L37.3,49.8z M37.2,50.4
			C37.2,50.4,37.2,50.4,37.2,50.4c0,0.1,0.1,0.1,0.1,0.1c0.1,0,0.2-0.1,0.2-0.3c0-0.2-0.1-0.3-0.2-0.3c0,0-0.1,0-0.1,0V50.4z"/>
		<path class="st4" d="M37.9,50.6L37.9,50.6c0.1-0.1,0.1-0.1,0.1-0.2v-0.8c0-0.1,0-0.1-0.1-0.1v-0.1c0.1,0,0.2,0,0.3-0.1
			c0,0.1,0,0.2,0,0.2v0.8c0,0.1,0,0.1,0.1,0.1v0.1H37.9z"/>
		<path class="st4" d="M38.4,50.6L38.4,50.6c0.1-0.1,0.1-0.1,0.1-0.2V50c0-0.1,0-0.1-0.1-0.1v-0.1c0.1,0,0.2,0,0.3-0.1
			c0,0.1,0,0.1,0,0.2v0.4c0,0.1,0,0.1,0.1,0.1v0.1H38.4z M38.6,49.7c-0.1,0-0.1-0.1-0.1-0.1c0-0.1,0.1-0.1,0.1-0.1
			c0.1,0,0.1,0.1,0.1,0.1C38.7,49.6,38.7,49.7,38.6,49.7z"/>
		<path class="st4" d="M39.4,50c0-0.1-0.1-0.2-0.2-0.2c0,0-0.1,0-0.1,0.1c0,0.1,0,0.1,0.1,0.1c0.1,0.1,0.2,0.1,0.2,0.3
			c0,0.2-0.2,0.3-0.3,0.3c-0.1,0-0.2,0-0.2-0.1c0,0,0-0.2,0-0.2l0.1,0c0,0.1,0.1,0.2,0.2,0.2c0.1,0,0.1,0,0.1-0.1
			c0-0.1,0-0.1-0.1-0.1c-0.1-0.1-0.2-0.1-0.2-0.3c0-0.1,0.1-0.2,0.3-0.2c0.1,0,0.1,0,0.2,0C39.4,49.9,39.4,50,39.4,50L39.4,50z"/>
		<path class="st4" d="M40.1,50c0-0.1-0.1-0.2-0.2-0.2c0,0-0.1,0-0.1,0.1c0,0.1,0,0.1,0.1,0.1c0.1,0.1,0.2,0.1,0.2,0.3
			c0,0.2-0.2,0.3-0.3,0.3c-0.1,0-0.2,0-0.2-0.1c0,0,0-0.2,0-0.2l0.1,0c0,0.1,0.1,0.2,0.2,0.2c0.1,0,0.1,0,0.1-0.1
			c0-0.1,0-0.1-0.1-0.1c-0.1-0.1-0.2-0.1-0.2-0.3c0-0.1,0.1-0.2,0.3-0.2c0.1,0,0.1,0,0.2,0C40.1,49.9,40.1,50,40.1,50L40.1,50z"/>
		<path class="st4" d="M41,50.4c-0.1,0.2-0.2,0.2-0.3,0.2c-0.2,0-0.4-0.2-0.4-0.4c0-0.1,0.1-0.2,0.1-0.3c0.1-0.1,0.2-0.1,0.3-0.1
			c0.2,0,0.3,0.1,0.3,0.3c0,0,0,0.1,0,0.1c0,0-0.3,0-0.5,0c0,0.2,0.1,0.3,0.2,0.3C40.8,50.4,40.9,50.4,41,50.4L41,50.4z M40.7,49.9
			c-0.1,0-0.1,0.1-0.1,0.2c0.1,0,0.1,0,0.2,0c0,0,0,0,0,0C40.8,49.9,40.7,49.9,40.7,49.9z"/>
		<path class="st4" d="M42.1,50.6L42.1,50.6c0.1-0.1,0.1-0.1,0.1-0.2v-0.3c0-0.1-0.1-0.2-0.1-0.2c0,0-0.1,0-0.1,0.1c0,0,0,0,0,0.1
			v0.4C41.9,50.5,41.9,50.5,42.1,50.6L42.1,50.6h-0.5v-0.1c0.1,0,0.1,0,0.1-0.1v-0.3c0-0.1,0-0.2-0.1-0.2c0,0-0.1,0-0.1,0.1v0.4
			c0,0.1,0,0.1,0.1,0.1v0.1h-0.4v-0.1c0.1,0,0.1,0,0.1-0.1V50c0-0.1,0-0.1-0.1-0.1v-0.1c0.1,0,0.2,0,0.3-0.1c0,0,0,0.1,0,0.1
			c0,0,0.1,0,0.1-0.1c0.1,0,0.1-0.1,0.1-0.1c0.1,0,0.2,0.1,0.2,0.1c0,0,0.1-0.1,0.1-0.1c0,0,0.1,0,0.1,0c0.2,0,0.2,0.1,0.2,0.3v0.3
			c0,0.1,0,0.1,0.1,0.1v0.1H42.1z"/>
		<path class="st4" d="M43.3,50.4c-0.1,0.2-0.2,0.2-0.3,0.2c-0.2,0-0.4-0.2-0.4-0.4c0-0.1,0.1-0.2,0.1-0.3c0.1-0.1,0.2-0.1,0.3-0.1
			c0.2,0,0.3,0.1,0.3,0.3c0,0,0,0.1,0,0.1c0,0-0.3,0-0.5,0c0,0.2,0.1,0.3,0.2,0.3C43.1,50.4,43.2,50.4,43.3,50.4L43.3,50.4z
			 M43,49.9c-0.1,0-0.1,0.1-0.1,0.2c0.1,0,0.1,0,0.2,0c0,0,0,0,0,0C43.1,49.9,43,49.9,43,49.9z"/>
		<path class="st4" d="M43.9,50.6L43.9,50.6c0.1-0.1,0.1-0.1,0.1-0.2v-0.3c0-0.1-0.1-0.2-0.1-0.2c0,0-0.1,0-0.1,0.1v0.4
			C43.7,50.5,43.7,50.5,43.9,50.6L43.9,50.6h-0.5v-0.1c0.1,0,0.1,0,0.1-0.1V50c0-0.1,0-0.1-0.1-0.1v-0.1c0.1,0,0.2,0,0.3-0.1
			c0,0,0,0.1,0,0.1c0,0,0.1-0.1,0.1-0.1c0.1,0,0.1,0,0.1,0c0.1,0,0.2,0.1,0.2,0.3v0.3c0,0.1,0,0.1,0.1,0.1v0.1H43.9z"/>
		<path class="st4" d="M44.7,50.6C44.7,50.6,44.7,50.6,44.7,50.6c-0.2,0-0.3,0-0.3-0.2v-0.5h-0.1l0,0l0.1-0.1h0.1v-0.1
			c0.1,0,0.1-0.1,0.2-0.1l0,0c0,0,0,0.1,0,0.3h0.2c0,0,0,0.1,0,0.1h-0.2v0.4c0,0.1,0.1,0.2,0.1,0.2c0,0,0.1,0,0.1,0l0,0.1L44.7,50.6
			z"/>
		<path class="st4" d="M45.4,50c0-0.1-0.1-0.2-0.2-0.2c0,0-0.1,0-0.1,0.1c0,0.1,0,0.1,0.1,0.1c0.1,0.1,0.2,0.1,0.2,0.3
			c0,0.2-0.2,0.3-0.3,0.3c-0.1,0-0.2,0-0.2-0.1c0,0,0-0.2,0-0.2l0.1,0c0,0.1,0.1,0.2,0.2,0.2c0.1,0,0.1,0,0.1-0.1
			c0-0.1,0-0.1-0.1-0.1C45.1,50.2,45,50.2,45,50c0-0.1,0.1-0.2,0.3-0.2c0.1,0,0.1,0,0.2,0C45.5,49.9,45.5,50,45.4,50L45.4,50z"/>
		<path class="st4" d="M47.2,49.5c-0.1,0-0.1,0-0.1,0.1c0,0.1,0,0.1,0,0.2v0.2c0,0.2,0,0.3-0.1,0.4c-0.1,0.1-0.2,0.1-0.3,0.1
			c-0.1,0-0.2,0-0.3-0.1c-0.1-0.1-0.2-0.2-0.2-0.4v-0.4c0-0.2,0-0.2-0.1-0.2v-0.1h0.5v0.1c-0.1,0-0.1,0-0.1,0.2v0.5
			c0,0.2,0.1,0.3,0.3,0.3c0.2,0,0.3-0.2,0.3-0.4v-0.2c0-0.1,0-0.2,0-0.2c0-0.1-0.1-0.1-0.2-0.1v-0.1L47.2,49.5L47.2,49.5z"/>
		<path class="st4" d="M47.7,50.6L47.7,50.6c0.1-0.1,0.1-0.1,0.1-0.2v-0.3c0-0.1-0.1-0.2-0.1-0.2c0,0-0.1,0-0.1,0.1v0.4
			C47.6,50.5,47.6,50.5,47.7,50.6L47.7,50.6h-0.5v-0.1c0.1,0,0.1,0,0.1-0.1V50c0-0.1,0-0.1-0.1-0.1v-0.1c0.1,0,0.2,0,0.3-0.1
			c0,0,0,0.1,0,0.1c0,0,0.1-0.1,0.1-0.1c0.1,0,0.1,0,0.1,0c0.1,0,0.2,0.1,0.2,0.3v0.3c0,0.1,0,0.1,0.1,0.1v0.1H47.7z"/>
		<path class="st4" d="M48.2,50.6L48.2,50.6c0.1-0.1,0.1-0.1,0.1-0.2V50c0-0.1,0-0.1-0.1-0.1v-0.1c0.1,0,0.2,0,0.3-0.1
			c0,0.1,0,0.1,0,0.2v0.4c0,0.1,0,0.1,0.1,0.1v0.1H48.2z M48.4,49.7c-0.1,0-0.1-0.1-0.1-0.1c0-0.1,0.1-0.1,0.1-0.1
			c0.1,0,0.1,0.1,0.1,0.1C48.6,49.6,48.5,49.7,48.4,49.7z"/>
		<path class="st4" d="M49.6,49.9c-0.1,0-0.1,0-0.1,0.1c-0.1,0.1-0.2,0.4-0.3,0.6h-0.1c-0.1-0.2-0.2-0.4-0.3-0.6
			c0-0.1,0-0.1-0.1-0.1v-0.1h0.4v0.1c-0.1,0-0.1,0-0.1,0.1c0,0.1,0.1,0.3,0.1,0.4c0-0.1,0.1-0.2,0.1-0.4c0-0.1,0-0.1-0.1-0.1v-0.1
			L49.6,49.9L49.6,49.9z"/>
		<path class="st4" d="M50.3,50.4c-0.1,0.2-0.2,0.2-0.3,0.2c-0.2,0-0.4-0.2-0.4-0.4c0-0.1,0.1-0.2,0.1-0.3c0.1-0.1,0.2-0.1,0.3-0.1
			c0.2,0,0.3,0.1,0.3,0.3c0,0,0,0.1,0,0.1c0,0-0.3,0-0.5,0c0,0.2,0.1,0.3,0.2,0.3C50.1,50.4,50.2,50.4,50.3,50.4L50.3,50.4z
			 M50,49.9c-0.1,0-0.1,0.1-0.1,0.2c0.1,0,0.1,0,0.2,0c0,0,0,0,0,0C50.1,49.9,50,49.9,50,49.9z"/>
		<path class="st4" d="M50.9,50.6h-0.5v-0.1c0.1,0,0.1,0,0.1-0.1V50c0-0.1,0-0.1-0.1-0.1v-0.1c0.1,0,0.2,0,0.3-0.1
			c0,0.1,0,0.1,0,0.2c0.1-0.1,0.1-0.2,0.2-0.2c0.1,0,0.1,0,0.1,0.1C51,50,51,50,51,50c0,0,0,0-0.1,0c0,0-0.1-0.1-0.1-0.1
			c0,0-0.1,0-0.1,0.1v0.3C50.7,50.5,50.7,50.5,50.9,50.6L50.9,50.6z"/>
		<path class="st4" d="M51.6,50c0-0.1-0.1-0.2-0.2-0.2c0,0-0.1,0-0.1,0.1c0,0.1,0,0.1,0.1,0.1c0.1,0.1,0.2,0.1,0.2,0.3
			c0,0.2-0.2,0.3-0.3,0.3c-0.1,0-0.2,0-0.2-0.1c0,0,0-0.2,0-0.2l0.1,0c0,0.1,0.1,0.2,0.2,0.2c0.1,0,0.1,0,0.1-0.1
			c0-0.1,0-0.1-0.1-0.1c-0.1-0.1-0.2-0.1-0.2-0.3c0-0.1,0.1-0.2,0.3-0.2c0.1,0,0.1,0,0.2,0C51.6,49.9,51.7,50,51.6,50L51.6,50z"/>
		<path class="st4" d="M51.8,50.6L51.8,50.6c0.1-0.1,0.1-0.1,0.1-0.2V50c0-0.1,0-0.1-0.1-0.1v-0.1c0.1,0,0.2,0,0.3-0.1
			c0,0.1,0,0.1,0,0.2v0.4c0,0.1,0,0.1,0.1,0.1v0.1H51.8z M52,49.7c-0.1,0-0.1-0.1-0.1-0.1c0-0.1,0.1-0.1,0.1-0.1
			c0.1,0,0.1,0.1,0.1,0.1C52.1,49.6,52.1,49.7,52,49.7z"/>
		<path class="st4" d="M52.7,50.6C52.7,50.6,52.6,50.6,52.7,50.6c-0.2,0-0.3,0-0.3-0.2v-0.5h-0.1l0,0l0.1-0.1h0.1v-0.1
			c0.1,0,0.1-0.1,0.2-0.1l0,0c0,0,0,0.1,0,0.3h0.2c0,0,0,0.1,0,0.1h-0.2v0.4c0,0.1,0.1,0.2,0.1,0.2c0,0,0.1,0,0.1,0l0,0.1L52.7,50.6
			z"/>
		<path class="st4" d="M53.5,50.6c0,0-0.1,0-0.1,0c0,0,0,0,0-0.1c-0.1,0-0.2,0.1-0.2,0.1c-0.2,0-0.2-0.1-0.2-0.2
			c0-0.1,0-0.1,0.1-0.2c0.1,0,0.2-0.1,0.3-0.1V50c0-0.1,0-0.1-0.1-0.1c0,0-0.1,0-0.1,0c0,0,0,0.1,0,0.1c0,0,0,0.1-0.1,0.1
			c0,0-0.1,0-0.1-0.1c0,0,0-0.1,0.1-0.1c0.1-0.1,0.2-0.1,0.3-0.1c0.1,0,0.1,0,0.2,0.1c0.1,0.1,0.1,0.1,0.1,0.2v0.3
			c0,0.1,0,0.1,0.1,0.1c0,0,0,0,0.1,0l0,0.1L53.5,50.6z M53.3,50.2C53.3,50.2,53.2,50.2,53.3,50.2c-0.2,0.1-0.2,0.1-0.2,0.2
			c0,0.1,0.1,0.1,0.1,0.1c0,0,0,0,0.1,0C53.3,50.4,53.3,50.2,53.3,50.2z"/>
		<path class="st4" d="M53.7,50.6L53.7,50.6c0.1-0.1,0.1-0.1,0.1-0.2V50c0-0.1,0-0.1-0.1-0.1v-0.1c0.1,0,0.2,0,0.3-0.1
			c0,0.1,0,0.1,0,0.2v0.4c0,0.1,0,0.1,0.1,0.1v0.1H53.7z M53.9,49.7c-0.1,0-0.1-0.1-0.1-0.1c0-0.1,0.1-0.1,0.1-0.1
			c0.1,0,0.1,0.1,0.1,0.1C54,49.6,54,49.7,53.9,49.7z"/>
		<path class="st4" d="M54.7,50.6h-0.5v-0.1c0.1,0,0.1,0,0.1-0.1V50c0-0.1,0-0.1-0.1-0.1v-0.1c0.1,0,0.2,0,0.3-0.1
			c0,0.1,0,0.1,0,0.2c0.1-0.1,0.1-0.2,0.2-0.2c0.1,0,0.1,0,0.1,0.1c0,0.1-0.1,0.1-0.1,0.1c0,0,0,0-0.1,0c0,0-0.1-0.1-0.1-0.1
			c0,0-0.1,0-0.1,0.1v0.3C54.6,50.5,54.6,50.5,54.7,50.6L54.7,50.6z"/>
		<path class="st4" d="M55.6,50.4c-0.1,0.2-0.2,0.2-0.3,0.2c-0.2,0-0.4-0.2-0.4-0.4c0-0.1,0.1-0.2,0.1-0.3c0.1-0.1,0.2-0.1,0.3-0.1
			c0.2,0,0.3,0.1,0.3,0.3c0,0,0,0.1,0,0.1c0,0-0.3,0-0.5,0c0,0.2,0.1,0.3,0.2,0.3C55.5,50.4,55.6,50.4,55.6,50.4L55.6,50.4z
			 M55.3,49.9c-0.1,0-0.1,0.1-0.1,0.2c0.1,0,0.1,0,0.2,0c0,0,0,0,0,0C55.4,49.9,55.4,49.9,55.3,49.9z"/>
		<path class="st4" d="M56.3,50c0-0.1-0.1-0.2-0.2-0.2c0,0-0.1,0-0.1,0.1c0,0.1,0,0.1,0.1,0.1c0.1,0.1,0.2,0.1,0.2,0.3
			c0,0.2-0.2,0.3-0.3,0.3c-0.1,0-0.2,0-0.2-0.1c0,0,0-0.2,0-0.2l0.1,0c0,0.1,0.1,0.2,0.2,0.2c0.1,0,0.1,0,0.1-0.1
			c0-0.1,0-0.1-0.1-0.1c-0.1-0.1-0.2-0.1-0.2-0.3c0-0.1,0.1-0.2,0.3-0.2c0.1,0,0.1,0,0.2,0C56.3,49.9,56.3,50,56.3,50L56.3,50z"/>
	</g>
	<g>
		<path class="st4" d="M1.4,47.8H1.2c-0.1,0-0.2-0.1-0.2-0.2c-0.1-0.1-0.1-0.3-0.1-0.4c0,0.1-0.1,0.1-0.1,0.2
			c-0.1,0-0.1,0.1-0.2,0.1c-0.1,0-0.3,0-0.4,0c-0.1,0-0.1,0-0.1-0.1c0-0.1,0.1-0.2,0.2-0.4c0.1-0.1,0.3-0.2,0.5-0.3c0,0,0,0,0-0.1
			c0,0,0-0.1,0-0.1c0,0,0-0.1,0-0.1c0,0,0.1-0.1,0.1-0.1c0,0.1,0,0.2,0,0.2c0,0.1,0,0.1,0,0.2L1,46.8C1,47,1,47.2,1,47.2
			c0,0.1,0.1,0.2,0.1,0.2h0.3V47.8z M0.5,45.7L0.4,46l-0.3-0.2l0.1-0.3L0.5,45.7z M0.8,46.9l0-0.2c-0.1,0-0.2,0.1-0.3,0.1
			c-0.1,0-0.1,0.1-0.2,0.2c0,0,0.1,0,0.1,0c0,0,0.1,0,0.1,0C0.6,47,0.7,47,0.8,46.9z M1,45.5l-0.1,0.3l-0.3-0.2l0.1-0.3L1,45.5z"/>
		<path class="st4" d="M2.4,47.8H1.3v-0.3h0.9c0-0.1,0-0.3-0.1-0.3C2.2,47,2.1,47,2,46.9l0.1-0.3c0.1,0.1,0.1,0.2,0.2,0.3
			c0,0.1,0.1,0.3,0.1,0.5V47.8z M1.9,48.3l-0.1,0.3l-0.3-0.2l0.1-0.3L1.9,48.3z M2.3,48.1l-0.1,0.3l-0.3-0.2L2,48L2.3,48.1z"/>
		<path class="st4" d="M3.9,47.8H3.6c-0.1,0-0.2,0-0.2-0.1c-0.1,0-0.2-0.1-0.2-0.2C3,47.6,3,47.6,2.8,47.7c-0.1,0.1-0.3,0.1-0.4,0.1
			H2.2v-0.3h0.2c0.1,0,0.2,0,0.3,0c0.1,0,0.2-0.1,0.3-0.1l-0.1-0.1c0,0-0.1-0.1-0.1-0.1c0,0,0,0-0.1,0c0,0,0,0-0.1,0.1h0v-0.1
			c0-0.1,0-0.2,0.1-0.3c0.1,0,0.2-0.1,0.3-0.1c0.1,0,0.3,0,0.3,0.1c0.1,0,0.2,0.1,0.2,0.2c0,0.1,0,0.1-0.1,0.2c0,0-0.1,0.1-0.2,0.2
			c0,0,0.1,0.1,0.1,0.1c0.1,0,0.1,0,0.1,0h0.3V47.8z"/>
		<path class="st4" d="M5.4,47.8H5.2c-0.1,0-0.2,0-0.3-0.1c-0.1,0-0.2-0.1-0.3-0.2c-0.1,0.1-0.1,0.1-0.2,0.2S4.2,47.8,4,47.8H3.7
			v-0.3H4c0.1,0,0.2,0,0.3-0.1c0.1,0,0.1-0.1,0.2-0.2c0.1-0.1,0.2-0.2,0.3-0.3c0.1-0.1,0.2-0.1,0.3-0.1c0.1,0.1,0.2,0.2,0.2,0.4
			c0.1,0.1,0.1,0.3,0.1,0.3V47.8z M5.2,47.4c0-0.1,0-0.1-0.1-0.2C5.1,47.1,5,47.1,5,47c-0.1,0-0.1,0-0.2,0.1c0,0-0.1,0.1-0.1,0.1
			c0,0,0.1,0.1,0.2,0.1C5,47.4,5.1,47.4,5.2,47.4L5.2,47.4z"/>
		<path class="st4" d="M6.2,47.8H6c-0.1,0-0.2,0-0.2-0.1c0-0.1-0.1-0.1-0.1-0.3s0-0.3-0.1-0.4c0-0.1,0-0.3,0-0.4c0-0.1,0-0.3,0-0.3
			c0-0.1,0-0.1-0.1-0.2c0-0.1-0.1-0.1-0.1-0.2l0.2-0.4c0,0.1,0.1,0.3,0.1,0.5c0,0.1,0,0.4,0,0.9c0,0.2,0.1,0.4,0.1,0.4
			c0,0.1,0.1,0.1,0.1,0.1h0.3V47.8z"/>
		<path class="st4" d="M8.3,47.8H6.1v-0.3h1.5c-0.1-0.1-0.2-0.2-0.3-0.2c-0.1-0.1-0.2-0.1-0.3-0.1C6.9,47,6.8,47,6.7,47
			c-0.1,0-0.1,0-0.2,0c0-0.1,0.1-0.2,0.1-0.2c0.1-0.1,0.2-0.1,0.3-0.1c0.1,0,0.3,0.1,0.5,0.2c0.1,0.1,0.2,0.2,0.4,0.4
			c0.2,0.1,0.3,0.2,0.3,0.2h0.1V47.8z M7.3,48.2l-0.1,0.3l-0.3-0.2L7,48L7.3,48.2z"/>
		<path class="st4" d="M9.1,47.8H8.1v-0.3h0.7l-0.2-1.6l-0.1,0c0-0.1,0-0.2,0-0.2c0-0.1,0-0.1,0.1-0.2l0,0c0,0.1,0,0.1,0.1,0.2
			c0.1,0,0.1,0,0.2,0.1c0,0.1,0,0.1,0,0.2c0,0.1,0,0.1,0,0.2l-0.1,0l0.2,1.5V47.8z"/>
		<path class="st4" d="M9.7,47.3c0,0.1,0,0.2-0.1,0.3c0,0-0.1,0.1-0.1,0.2l0,0c0,0,0-0.1,0-0.1s0-0.1,0-0.1c0-0.1,0-0.3,0-0.5
			c0-0.2,0-0.5-0.1-0.7c0-0.2,0-0.3-0.1-0.5c0-0.1,0.1-0.1,0.1-0.2c0-0.1,0.1-0.1,0.1-0.2c0,0.1,0,0.3,0.1,0.6
			c0,0.2,0.1,0.5,0.1,0.7C9.7,47,9.7,47.2,9.7,47.3z"/>
		<path class="st4" d="M13.6,47.8h-1.8c-0.2,0-0.4,0-0.6-0.1c-0.2-0.1-0.3-0.3-0.3-0.5c0-0.1,0-0.2,0.1-0.4c0,0,0.1-0.1,0.1-0.2
			l0.1,0c0,0.1-0.1,0.1-0.1,0.2c0,0.1-0.1,0.2-0.1,0.2c0,0.1,0.1,0.3,0.2,0.3c0.1,0.1,0.3,0.1,0.5,0.1h1.6v0c0-0.1,0-0.3,0-0.3
			c0-0.1-0.1-0.2-0.2-0.2l0.1-0.3c0.1,0.1,0.1,0.1,0.1,0.1c0.1,0.1,0.1,0.3,0.1,0.6V47.8z M12.3,46.2l-0.1,0.3l-0.3-0.2l0.1-0.3
			L12.3,46.2z M12.8,46.1l-0.1,0.3l-0.3-0.2l0.1-0.3L12.8,46.1z"/>
		<path class="st4" d="M14.5,47.8h-0.3c-0.1,0-0.2,0-0.2-0.1c0-0.1-0.1-0.1-0.1-0.3s0-0.3-0.1-0.4c0-0.1,0-0.3,0-0.4
			c0-0.1,0-0.3,0-0.3c0-0.1,0-0.1-0.1-0.2c0-0.1-0.1-0.1-0.1-0.2l0.2-0.4c0,0.1,0.1,0.3,0.1,0.5c0,0.1,0,0.4,0,0.9
			c0,0.2,0.1,0.4,0.1,0.4c0,0.1,0.1,0.1,0.1,0.1h0.3V47.8z"/>
		<path class="st4" d="M16.5,47.8h-0.1c-0.1,0-0.1,0-0.2,0c-0.1,0-0.1-0.1-0.2-0.1c-0.1,0-0.1,0.1-0.2,0.1c-0.1,0-0.2,0-0.3,0h-0.1
			c-0.1,0-0.1,0-0.2,0c0,0-0.1,0-0.2-0.1c-0.1,0-0.1,0.1-0.2,0.1c0,0-0.1,0-0.2,0h-0.4v-0.3h0.4c0.1,0,0.2,0,0.2,0
			c0.1,0,0.1-0.1,0.1-0.2c0,0,0-0.1,0-0.1c0,0,0-0.1,0-0.1l0.1-0.1c0,0.1,0.1,0.2,0.1,0.2c0,0.1,0.1,0.2,0.1,0.2
			c0.1,0.1,0.1,0.1,0.2,0.1h0.1c0.1,0,0.2,0,0.2,0c0,0,0.1-0.1,0.1-0.2c0,0,0-0.1,0-0.1s0-0.1,0-0.1l0.1-0.1l0,0.2
			c0,0.1,0.1,0.2,0.1,0.3c0,0,0.1,0.1,0.2,0.1c0,0,0.1,0,0.1,0s0,0,0-0.1c0-0.1,0-0.1-0.1-0.2c0,0,0-0.1-0.1-0.1l0.1-0.2
			c0.1,0.1,0.1,0.1,0.1,0.2c0,0.1,0,0.2,0,0.3V47.8z"/>
		<path class="st4" d="M18.6,47.8h-0.1c-0.1,0-0.1,0-0.2,0c-0.1,0-0.1-0.1-0.2-0.1c-0.1,0-0.1,0.1-0.2,0.1c-0.1,0-0.2,0-0.3,0h-0.1
			c-0.1,0-0.1,0-0.2,0c0,0-0.1,0-0.2-0.1c-0.1,0-0.1,0.1-0.2,0.1c0,0-0.1,0-0.2,0h-0.4v-0.3h0.4c0.1,0,0.2,0,0.2,0
			c0.1,0,0.1-0.1,0.1-0.2c0,0,0-0.1,0-0.1c0,0,0-0.1,0-0.1l0.1-0.1c0,0.1,0.1,0.2,0.1,0.2c0,0.1,0.1,0.2,0.1,0.2
			c0.1,0.1,0.1,0.1,0.2,0.1h0.1c0.1,0,0.2,0,0.2,0c0,0,0.1-0.1,0.1-0.2c0,0,0-0.1,0-0.1s0-0.1,0-0.1l0.1-0.1l0,0.2
			c0,0.1,0.1,0.2,0.1,0.3c0,0,0.1,0.1,0.2,0.1c0,0,0.1,0,0.1,0s0,0,0-0.1c0-0.1,0-0.1-0.1-0.2c0,0,0-0.1-0.1-0.1l0.1-0.2
			c0.1,0.1,0.1,0.1,0.1,0.2c0,0.1,0,0.2,0,0.3V47.8z"/>
		<path class="st4" d="M20.2,47.6c0,0.2-0.1,0.4-0.2,0.6c-0.2,0.2-0.4,0.3-0.6,0.3c-0.1,0-0.2,0-0.3,0c-0.1,0-0.1,0-0.2-0.1
			c-0.1,0-0.2-0.1-0.2-0.1l0-0.1c0.1,0,0.1,0,0.2,0.1c0.1,0,0.1,0,0.2,0c0.2,0,0.3,0,0.4-0.1c0.1-0.1,0.2-0.1,0.3-0.3
			c0.1-0.1,0.1-0.2,0.2-0.3c-0.2,0-0.3,0-0.4-0.1c-0.1-0.1-0.1-0.2-0.1-0.3c0-0.1,0-0.2,0.1-0.4c0.1-0.1,0.2-0.2,0.3-0.2
			c0.1,0,0.2,0.1,0.2,0.2c0,0.1,0.1,0.2,0.1,0.4V47.6z M19.8,46.5C19.8,46.5,19.8,46.5,19.8,46.5c-0.1,0.1-0.1,0.1-0.2,0.1l-0.3,0.1
			c0-0.1,0.1-0.1,0.2-0.2c0,0-0.1,0-0.1-0.1c0,0,0,0,0-0.1c0,0,0-0.1,0.1-0.2c0.1-0.1,0.1-0.1,0.2-0.1c0,0,0,0,0.1,0c0,0,0,0,0,0.1
			c0,0,0,0,0,0.1c0,0,0,0,0,0.1c0,0-0.1-0.1-0.1-0.1c0,0-0.1,0-0.1,0c0,0,0,0,0,0c0,0,0,0,0.1,0.1c0.1,0,0.1,0,0.1,0
			C19.7,46.5,19.7,46.5,19.8,46.5C19.7,46.5,19.7,46.5,19.8,46.5z M20.1,47.4c0-0.1-0.1-0.2-0.1-0.2c0,0-0.1-0.1-0.1-0.1
			c0,0-0.1,0-0.1,0c0,0,0,0.1,0,0.1c0,0.1,0,0.1,0.1,0.1C19.9,47.4,20,47.4,20.1,47.4z"/>
		<path class="st4" d="M21.7,47.8h-0.2c-0.1,0-0.2,0-0.3-0.1c-0.1,0-0.2-0.1-0.3-0.2c-0.1,0.1-0.1,0.1-0.2,0.2s-0.2,0.1-0.3,0.1
			h-0.3v-0.3h0.3c0.1,0,0.2,0,0.3-0.1c0.1,0,0.1-0.1,0.2-0.2c0.1-0.1,0.2-0.2,0.3-0.3c0.1-0.1,0.2-0.1,0.3-0.1
			c0.1,0.1,0.2,0.2,0.2,0.4c0.1,0.1,0.1,0.3,0.1,0.3V47.8z M21.5,47.4c0-0.1,0-0.1-0.1-0.2c0-0.1-0.1-0.1-0.1-0.2
			c-0.1,0-0.1,0-0.2,0.1c0,0-0.1,0.1-0.1,0.1c0,0,0.1,0.1,0.2,0.1C21.3,47.4,21.4,47.4,21.5,47.4L21.5,47.4z"/>
		<path class="st4" d="M22.5,47.8h-0.9v-0.3h0.7l-0.2-1.6l-0.1,0c0-0.1,0-0.2,0-0.2c0-0.1,0-0.1,0.1-0.2l0,0c0,0.1,0,0.1,0.1,0.2
			c0.1,0,0.1,0,0.2,0.1c0,0.1,0,0.1,0,0.2c0,0.1,0,0.1,0,0.2l-0.1,0l0.2,1.5V47.8z"/>
		<path class="st4" d="M23.1,47.3c0,0.1,0,0.2-0.1,0.3c0,0-0.1,0.1-0.1,0.2l0,0c0,0,0-0.1,0-0.1s0-0.1,0-0.1c0-0.1,0-0.3,0-0.5
			c0-0.2,0-0.5-0.1-0.7c0-0.2,0-0.3-0.1-0.5c0-0.1,0.1-0.1,0.1-0.2c0-0.1,0.1-0.1,0.1-0.2c0,0.1,0,0.3,0.1,0.6
			c0,0.2,0.1,0.5,0.1,0.7C23.1,47,23.1,47.2,23.1,47.3z"/>
		<path class="st4" d="M26.6,47.8h-0.3c-0.2,0-0.3,0-0.4,0s-0.1,0-0.1,0.1c0,0,0.1,0.1,0.2,0.1c0.1,0,0.1,0,0.1,0c0,0,0.1,0,0.2,0
			c0.1,0,0.1,0,0.1,0c0,0,0.1,0.1,0.1,0.1c0,0.2-0.1,0.4-0.2,0.5c-0.2,0.1-0.4,0.2-0.8,0.2c-0.3,0-0.5,0-0.6-0.1
			c-0.2-0.1-0.3-0.2-0.3-0.4c0-0.1,0-0.3,0.1-0.5c0-0.1,0.1-0.2,0.2-0.4l0.1,0c0,0.1-0.1,0.2-0.1,0.2c-0.1,0.1-0.1,0.2-0.1,0.3
			c0,0.2,0.1,0.3,0.2,0.3c0.2,0.1,0.4,0.1,0.6,0.1c0.2,0,0.3,0,0.5,0c0.2,0,0.2-0.1,0.2-0.1c0,0,0,0,0,0c0,0,0,0-0.1,0
			c0,0-0.1,0-0.2,0c-0.1,0-0.1,0-0.1,0c-0.1,0-0.1,0-0.2,0c0,0,0-0.1,0-0.1c0-0.2,0-0.3,0.1-0.4c0.1-0.1,0.2-0.1,0.3-0.2
			c0.1,0,0.2,0,0.3,0h0.3V47.8z M25.5,49l-0.2,0.2L25.1,49l0.2-0.2L25.5,49z M25.8,49l-0.2,0.2L25.5,49l0.2-0.2L25.8,49z"/>
		<path class="st4" d="M27.6,47.8h-1.2v-0.3h1c0-0.1,0-0.2,0-0.3c-0.1,0-0.1,0-0.1,0c-0.1,0-0.1,0-0.2,0c-0.1,0-0.2,0-0.2-0.1
			c-0.1-0.1-0.1-0.1-0.1-0.2c0-0.2,0-0.3,0.1-0.5c0.1-0.1,0.2-0.2,0.3-0.2c0.2,0,0.3,0.1,0.4,0.4c0.1,0.2,0.1,0.4,0.1,0.7V47.8z
			 M27.4,45.7L27.2,46l-0.3-0.2l0.1-0.3L27.4,45.7z M27.3,46.8c0,0,0-0.1-0.1-0.1c-0.1-0.1-0.1-0.1-0.1-0.1c0,0-0.1,0-0.1,0
			c0,0,0,0.1,0,0.1c0,0.1,0.1,0.1,0.2,0.1C27.2,46.9,27.2,46.8,27.3,46.8C27.3,46.8,27.3,46.8,27.3,46.8z"/>
		<path class="st4" d="M29.5,47.8c0,0.1-0.1,0.3-0.2,0.4c-0.1,0.1-0.2,0.2-0.4,0.3c-0.1,0.1-0.3,0.1-0.4,0.1c-0.1,0-0.2,0-0.3,0
			c-0.1,0-0.2,0-0.3-0.1c-0.1,0-0.2-0.1-0.3-0.1l0-0.1c0.1,0,0.2,0,0.3,0c0.1,0,0.2,0,0.2,0c0.2,0,0.3-0.1,0.5-0.2
			c0.2-0.1,0.3-0.2,0.4-0.4c0.1-0.1,0.2-0.3,0.2-0.4c0-0.1,0-0.2-0.1-0.3c0-0.1-0.1-0.2-0.2-0.3l0.1-0.3c0.1,0.1,0.2,0.2,0.2,0.3
			c0.1,0.1,0.1,0.2,0.1,0.4V47.8z"/>
		<path class="st4" d="M32.7,47.8h-2.2c-0.1,0-0.1,0-0.2,0c0,0-0.1,0-0.2-0.1c-0.1,0-0.1,0.1-0.2,0.1c-0.1,0-0.1,0-0.2,0h-0.4v-0.3
			h0.4c0.1,0,0.2,0,0.2,0c0.1,0,0.1-0.1,0.1-0.2c0,0,0-0.1,0-0.1c0,0,0-0.1,0-0.1l0.1-0.1c0,0.2,0.1,0.3,0.2,0.4
			c0.1,0.1,0.2,0.1,0.3,0.1c0.1,0,0.2,0,0.4-0.1c0.2-0.1,0.3-0.1,0.4-0.2c0.2-0.1,0.3-0.2,0.3-0.2c0.1-0.1,0.2-0.1,0.3-0.1
			c0.1,0,0.2,0,0.3,0c0.2,0,0.3,0,0.4,0.1c0.1,0.1,0.1,0.2,0.1,0.4V47.8z M32.4,47.3c0-0.1,0-0.1-0.1-0.1s-0.2-0.1-0.3-0.1
			c-0.1,0-0.3,0-0.5,0.1c-0.1,0.1-0.3,0.1-0.4,0.2H32c0.1,0,0.2,0,0.3,0S32.4,47.3,32.4,47.3z"/>
		<path class="st4" d="M33.7,47.8h-1.1v-0.3h0.9c0-0.1,0-0.3-0.1-0.3c0-0.1-0.1-0.1-0.2-0.2l0.1-0.3c0.1,0.1,0.1,0.2,0.2,0.3
			c0,0.1,0.1,0.3,0.1,0.5V47.8z M33.2,46.1l-0.1,0.3l-0.3-0.2l0.1-0.3L33.2,46.1z M33.7,45.9l-0.1,0.3L33.2,46l0.1-0.3L33.7,45.9z"
			/>
		<path class="st4" d="M35.2,47.8H35c-0.1,0-0.2,0-0.3-0.1c-0.1,0-0.2-0.1-0.3-0.2c-0.1,0.1-0.1,0.1-0.2,0.2s-0.2,0.1-0.3,0.1h-0.3
			v-0.3h0.3c0.1,0,0.2,0,0.3-0.1c0.1,0,0.1-0.1,0.2-0.2c0.1-0.1,0.2-0.2,0.3-0.3c0.1-0.1,0.2-0.1,0.3-0.1c0.1,0.1,0.2,0.2,0.2,0.4
			c0.1,0.1,0.1,0.3,0.1,0.3V47.8z M35,47.4c0-0.1,0-0.1-0.1-0.2c0-0.1-0.1-0.1-0.1-0.2c-0.1,0-0.1,0-0.2,0.1c0,0-0.1,0.1-0.1,0.1
			c0,0,0.1,0.1,0.2,0.1C34.8,47.4,34.9,47.4,35,47.4L35,47.4z"/>
		<path class="st4" d="M36,47.8H35v-0.3h0.7l-0.2-1.6l-0.1,0c0-0.1,0-0.2,0-0.2c0-0.1,0-0.1,0.1-0.2l0,0c0,0.1,0,0.1,0.1,0.2
			c0.1,0,0.1,0,0.2,0.1c0,0.1,0,0.1,0,0.2c0,0.1,0,0.1,0,0.2l-0.1,0l0.2,1.5V47.8z"/>
		<path class="st4" d="M38.5,47.8h-0.3c-0.1,0-0.2-0.1-0.2-0.2c-0.1-0.1-0.1-0.3-0.1-0.4c0,0.1-0.1,0.1-0.1,0.2
			c-0.1,0-0.1,0.1-0.2,0.1c-0.1,0-0.3,0-0.4,0c-0.1,0-0.1,0-0.1-0.1c0-0.1,0.1-0.2,0.2-0.4c0.1-0.1,0.3-0.2,0.5-0.3c0,0,0,0,0-0.1
			c0,0,0-0.1,0-0.1c0,0,0-0.1,0-0.1c0,0,0.1-0.1,0.1-0.1c0,0.1,0,0.2,0,0.2c0,0.1,0,0.1,0,0.2l0.1,0.3c0,0.2,0.1,0.3,0.1,0.4
			c0,0.1,0.1,0.2,0.1,0.2h0.3V47.8z M37.6,45.7L37.4,46l-0.3-0.2l0.1-0.3L37.6,45.7z M37.8,46.9l0-0.2c-0.1,0-0.2,0.1-0.3,0.1
			c-0.1,0-0.1,0.1-0.2,0.2c0,0,0.1,0,0.1,0c0,0,0.1,0,0.1,0C37.7,47,37.7,47,37.8,46.9z M38,45.5l-0.1,0.3l-0.3-0.2l0.1-0.3L38,45.5
			z"/>
		<path class="st4" d="M39.4,47.8h-1.1v-0.3h0.9c0-0.1,0-0.3-0.1-0.3c0-0.1-0.1-0.1-0.2-0.2l0.1-0.3c0.1,0.1,0.1,0.2,0.2,0.3
			c0,0.1,0.1,0.3,0.1,0.5V47.8z M39,48.3l-0.1,0.3l-0.3-0.2l0.1-0.3L39,48.3z M39.4,48.1l-0.1,0.3l-0.3-0.2l0.1-0.3L39.4,48.1z"/>
		<path class="st4" d="M41.4,47.8h-0.1c-0.1,0-0.1,0-0.2,0c-0.1,0-0.1-0.1-0.2-0.1c-0.1,0-0.1,0.1-0.2,0.1c-0.1,0-0.2,0-0.3,0h-0.1
			c-0.1,0-0.1,0-0.2,0c0,0-0.1,0-0.2-0.1c-0.1,0-0.1,0.1-0.2,0.1c0,0-0.1,0-0.2,0h-0.4v-0.3h0.4c0.1,0,0.2,0,0.2,0
			c0.1,0,0.1-0.1,0.1-0.2c0,0,0-0.1,0-0.1c0,0,0-0.1,0-0.1l0.1-0.1c0,0.1,0.1,0.2,0.1,0.2c0,0.1,0.1,0.2,0.1,0.2
			c0.1,0.1,0.1,0.1,0.2,0.1h0.1c0.1,0,0.2,0,0.2,0c0,0,0.1-0.1,0.1-0.2c0,0,0-0.1,0-0.1s0-0.1,0-0.1l0.1-0.1l0,0.2
			c0,0.1,0.1,0.2,0.1,0.3c0,0,0.1,0.1,0.2,0.1c0,0,0.1,0,0.1,0s0,0,0-0.1c0-0.1,0-0.1-0.1-0.2c0,0,0-0.1-0.1-0.1l0.1-0.2
			c0.1,0.1,0.1,0.1,0.1,0.2c0,0.1,0,0.2,0,0.3V47.8z"/>
		<path class="st4" d="M42.4,47.8h-1.1v-0.3h0.9c0-0.1,0-0.3-0.1-0.3c0-0.1-0.1-0.1-0.2-0.2l0.1-0.3c0.1,0.1,0.1,0.2,0.2,0.3
			c0,0.1,0.1,0.3,0.1,0.5V47.8z M42.2,46l-0.1,0.3l-0.3-0.2l0.1-0.3L42.2,46z"/>
		<path class="st4" d="M44,47.6c0,0.2-0.1,0.4-0.2,0.6c-0.2,0.2-0.4,0.3-0.6,0.3c-0.1,0-0.2,0-0.3,0c-0.1,0-0.1,0-0.2-0.1
			c-0.1,0-0.2-0.1-0.2-0.1l0-0.1c0.1,0,0.1,0,0.2,0.1c0.1,0,0.1,0,0.2,0c0.2,0,0.3,0,0.4-0.1c0.1-0.1,0.2-0.1,0.3-0.3
			c0.1-0.1,0.1-0.2,0.2-0.3c-0.2,0-0.3,0-0.4-0.1c-0.1-0.1-0.1-0.2-0.1-0.3c0-0.1,0-0.2,0.1-0.4c0.1-0.1,0.2-0.2,0.3-0.2
			c0.1,0,0.2,0.1,0.2,0.2c0,0.1,0.1,0.2,0.1,0.4V47.6z M43.9,47.4c0-0.1-0.1-0.2-0.1-0.2c0,0-0.1-0.1-0.1-0.1c0,0-0.1,0-0.1,0
			c0,0,0,0.1,0,0.1c0,0.1,0,0.1,0.1,0.1C43.7,47.4,43.8,47.4,43.9,47.4z"/>
		<path class="st4" d="M44.9,47.8h-1.1v-0.3h0.9c0-0.1,0-0.3-0.1-0.3c0-0.1-0.1-0.1-0.2-0.2l0.1-0.3c0.1,0.1,0.1,0.2,0.2,0.3
			c0,0.1,0.1,0.3,0.1,0.5V47.8z M44.5,46.1l-0.1,0.3l-0.3-0.2l0.1-0.3L44.5,46.1z M44.9,45.9l-0.1,0.3L44.5,46l0.1-0.3L44.9,45.9z"
			/>
		<path class="st4" d="M45.7,47.8h-0.9v-0.3h0.7l-0.2-1.6l-0.1,0c0-0.1,0-0.2,0-0.2c0-0.1,0-0.1,0.1-0.2l0,0c0,0.1,0,0.1,0.1,0.2
			c0.1,0,0.1,0,0.2,0.1c0,0.1,0,0.1,0,0.2c0,0.1,0,0.1,0,0.2l-0.1,0l0.2,1.5V47.8z"/>
		<path class="st4" d="M46.4,47.3c0,0.1,0,0.2-0.1,0.3c0,0-0.1,0.1-0.1,0.2l0,0c0,0,0-0.1,0-0.1s0-0.1,0-0.1c0-0.1,0-0.3,0-0.5
			c0-0.2,0-0.5-0.1-0.7c0-0.2,0-0.3-0.1-0.5c0-0.1,0.1-0.1,0.1-0.2c0-0.1,0.1-0.1,0.1-0.2c0,0.1,0,0.3,0.1,0.6
			c0,0.2,0.1,0.5,0.1,0.7C46.3,47,46.4,47.2,46.4,47.3z"/>
		<path class="st4" d="M49,47.8h-0.3c-0.1,0-0.2-0.1-0.2-0.2c-0.1-0.1-0.1-0.3-0.1-0.4c0,0.1-0.1,0.1-0.1,0.2
			c-0.1,0-0.1,0.1-0.2,0.1c-0.1,0-0.3,0-0.4,0c-0.1,0-0.1,0-0.1-0.1c0-0.1,0.1-0.2,0.2-0.4c0.1-0.1,0.3-0.2,0.5-0.3c0,0,0,0,0-0.1
			c0,0,0-0.1,0-0.1c0,0,0-0.1,0-0.1c0,0,0.1-0.1,0.1-0.1c0,0.1,0,0.2,0,0.2c0,0.1,0,0.1,0,0.2l0.1,0.3c0,0.2,0.1,0.3,0.1,0.4
			c0,0.1,0.1,0.2,0.1,0.2H49V47.8z M48.1,45.7L48,46l-0.3-0.2l0.1-0.3L48.1,45.7z M48.4,46.9l0-0.2c-0.1,0-0.2,0.1-0.3,0.1
			c-0.1,0-0.1,0.1-0.2,0.2c0,0,0.1,0,0.1,0c0,0,0.1,0,0.1,0C48.2,47,48.3,47,48.4,46.9z M48.5,45.5l-0.1,0.3l-0.3-0.2l0.1-0.3
			L48.5,45.5z"/>
		<path class="st4" d="M49.9,47.8h-1.1v-0.3h0.9c0-0.1,0-0.3-0.1-0.3c0-0.1-0.1-0.1-0.2-0.2l0.1-0.3c0.1,0.1,0.1,0.2,0.2,0.3
			c0,0.1,0.1,0.3,0.1,0.5V47.8z M49.5,48.3l-0.1,0.3l-0.3-0.2l0.1-0.3L49.5,48.3z M49.9,48.1l-0.1,0.3l-0.3-0.2l0.1-0.3L49.9,48.1z"
			/>
		<path class="st4" d="M51.4,47.8h-0.3c-0.1,0-0.2,0-0.2-0.1c-0.1,0-0.2-0.1-0.2-0.2c-0.1,0.1-0.2,0.1-0.3,0.2
			c-0.1,0.1-0.3,0.1-0.4,0.1h-0.2v-0.3H50c0.1,0,0.2,0,0.3,0c0.1,0,0.2-0.1,0.3-0.1l-0.1-0.1c0,0-0.1-0.1-0.1-0.1c0,0,0,0-0.1,0
			c0,0,0,0-0.1,0.1h0v-0.1c0-0.1,0-0.2,0.1-0.3c0.1,0,0.2-0.1,0.3-0.1c0.1,0,0.3,0,0.3,0.1c0.1,0,0.2,0.1,0.2,0.2
			c0,0.1,0,0.1-0.1,0.2c0,0-0.1,0.1-0.2,0.2c0,0,0.1,0.1,0.1,0.1c0.1,0,0.1,0,0.1,0h0.3V47.8z"/>
		<path class="st4" d="M53,47.8h-0.2c-0.1,0-0.2,0-0.3-0.1c-0.1,0-0.2-0.1-0.3-0.2c-0.1,0.1-0.1,0.1-0.2,0.2s-0.2,0.1-0.3,0.1h-0.3
			v-0.3h0.3c0.1,0,0.2,0,0.3-0.1c0.1,0,0.1-0.1,0.2-0.2c0.1-0.1,0.2-0.2,0.3-0.3c0.1-0.1,0.2-0.1,0.3-0.1c0.1,0.1,0.2,0.2,0.2,0.4
			c0.1,0.1,0.1,0.3,0.1,0.3V47.8z M52.7,47.4c0-0.1,0-0.1-0.1-0.2c0-0.1-0.1-0.1-0.1-0.2c-0.1,0-0.1,0-0.2,0.1c0,0-0.1,0.1-0.1,0.1
			c0,0,0.1,0.1,0.2,0.1C52.6,47.4,52.7,47.4,52.7,47.4L52.7,47.4z"/>
		<path class="st4" d="M55,47.8h-2.2v-0.3h1.5c-0.1-0.1-0.2-0.2-0.3-0.2c-0.1-0.1-0.2-0.1-0.3-0.1c-0.1,0-0.2-0.1-0.3-0.1
			c-0.1,0-0.1,0-0.2,0c0-0.1,0.1-0.2,0.1-0.2c0.1-0.1,0.2-0.1,0.3-0.1c0.1,0,0.3,0.1,0.5,0.2c0.1,0.1,0.2,0.2,0.4,0.4
			c0.2,0.1,0.3,0.2,0.3,0.2H55V47.8z M54,48.2l-0.1,0.3l-0.3-0.2l0.1-0.3L54,48.2z"/>
		<path class="st4" d="M55.8,47.8h-0.9v-0.3h0.7l-0.2-1.6l-0.1,0c0-0.1,0-0.2,0-0.2c0-0.1,0-0.1,0.1-0.2l0,0c0,0.1,0,0.1,0.1,0.2
			c0.1,0,0.1,0,0.2,0.1c0,0.1,0,0.1,0,0.2c0,0.1,0,0.1,0,0.2l-0.1,0l0.2,1.5V47.8z"/>
		<path class="st4" d="M56.4,47.3c0,0.1,0,0.2-0.1,0.3c0,0-0.1,0.1-0.1,0.2l0,0c0,0,0-0.1,0-0.1s0-0.1,0-0.1c0-0.1,0-0.3,0-0.5
			c0-0.2,0-0.5-0.1-0.7c0-0.2,0-0.3-0.1-0.5c0-0.1,0.1-0.1,0.1-0.2c0-0.1,0.1-0.1,0.1-0.2c0,0.1,0,0.3,0.1,0.6
			c0,0.2,0.1,0.5,0.1,0.7C56.4,47,56.4,47.2,56.4,47.3z"/>
	</g>
</g>
<g id="Layer_4" class="st0">
	<g class="st5">
		<g>
			<path class="st1" d="M-351.1,64.4V64c0.8-0.1,0.8-0.2,0.6-0.8c-0.1-0.4-0.3-0.9-0.5-1.4h-2.3c-0.1,0.4-0.3,0.8-0.4,1.2
				c-0.3,0.8,0,0.9,1,0.9v0.4h-3V64c0.8-0.1,0.9-0.2,1.4-1.2l2.5-6.2l0.6-0.1c0.8,2.1,1.6,4.2,2.4,6.2c0.4,1.1,0.6,1.2,1.3,1.3v0.4
				H-351.1z M-352.1,58.7c-0.3,0.9-0.7,1.7-1,2.5h1.9L-352.1,58.7z"/>
			<path class="st1" d="M-344.2,60.7c-0.3-0.8-0.7-1.2-1.3-1.2c-0.3,0-0.6,0.2-0.6,0.6c0,0.4,0.3,0.6,0.9,0.9c1,0.4,1.6,0.8,1.6,1.8
				c0,1.2-1.1,1.8-2.2,1.8c-0.6,0-1.3-0.2-1.5-0.4c0-0.3-0.2-1.1-0.2-1.5l0.4-0.1c0.3,0.8,0.7,1.5,1.5,1.5c0.5,0,0.7-0.3,0.7-0.6
				c0-0.4-0.2-0.6-0.9-1c-0.8-0.4-1.6-0.8-1.6-1.8c0-0.9,0.8-1.7,2.1-1.7c0.6,0,1,0.1,1.3,0.2c0,0.3,0.1,1.1,0.2,1.4L-344.2,60.7z"
				/>
			<path class="st1" d="M-339.5,60.7c-0.3-0.8-0.7-1.2-1.3-1.2c-0.3,0-0.6,0.2-0.6,0.6c0,0.4,0.3,0.6,0.9,0.9c1,0.4,1.6,0.8,1.6,1.8
				c0,1.2-1.1,1.8-2.2,1.8c-0.6,0-1.3-0.2-1.5-0.4c0-0.3-0.2-1.1-0.2-1.5l0.4-0.1c0.3,0.8,0.7,1.5,1.5,1.5c0.5,0,0.7-0.3,0.7-0.6
				c0-0.4-0.2-0.6-0.9-1c-0.8-0.4-1.6-0.8-1.6-1.8c0-0.9,0.8-1.7,2.1-1.7c0.6,0,1,0.1,1.3,0.2c0,0.3,0.1,1.1,0.2,1.4L-339.5,60.7z"
				/>
			<path class="st1" d="M-335.2,59c1.7,0,2.8,1.3,2.8,2.7c0,1.9-1.4,2.9-2.8,2.9c-1.8,0-2.8-1.4-2.8-2.8
				C-338.1,60-336.6,59-335.2,59z M-335.4,59.4c-0.5,0-1,0.5-1,2c0,1.5,0.5,2.6,1.2,2.6c0.5,0,0.9-0.3,0.9-2.1
				C-334.2,60.3-334.6,59.4-335.4,59.4z"/>
			<path class="st1" d="M-327,63.3c-0.6,0.8-1.4,1.3-2.1,1.3c-1.7,0-2.6-1.2-2.6-2.6c0-0.9,0.5-1.7,1.2-2.3c0.8-0.6,1.5-0.7,2.1-0.7
				c0.5,0,0.8,0.1,1.1,0.3c0.2,0.1,0.2,0.3,0.2,0.4c0,0.3-0.3,0.7-0.5,0.7c-0.1,0-0.2,0-0.3-0.1c-0.5-0.4-0.9-0.6-1.2-0.6
				c-0.5,0-1,0.5-1,1.8c0,1.6,1.2,2.1,1.7,2.1c0.5,0,0.9-0.1,1.3-0.5L-327,63.3z"/>
			<path class="st1" d="M-326.6,64.4V64c0.6-0.1,0.7-0.1,0.7-1v-2.3c0-0.8-0.1-0.9-0.6-0.9v-0.4c0.8-0.1,1.5-0.2,2.2-0.4
				c0,0.5,0,1,0,1.5V63c0,0.8,0,0.9,0.7,1v0.4H-326.6z M-325.2,58.2c-0.5,0-0.9-0.4-0.9-0.9c0-0.5,0.4-0.9,0.9-0.9
				c0.5,0,0.9,0.4,0.9,0.9C-324.3,57.8-324.7,58.2-325.2,58.2z"/>
			<path class="st1" d="M-319,64.6c-0.3,0-0.6-0.1-0.7-0.3c-0.2-0.1-0.3-0.3-0.3-0.4c-0.5,0.3-1,0.7-1.3,0.7c-1,0-1.6-0.8-1.6-1.5
				c0-0.6,0.3-0.9,0.9-1.2c0.7-0.3,1.7-0.6,1.9-0.8v-0.5c0-0.6-0.2-1-0.7-1c-0.2,0-0.4,0.1-0.5,0.2c-0.1,0.2-0.2,0.4-0.3,0.8
				c-0.1,0.3-0.3,0.4-0.5,0.4c-0.3,0-0.7-0.3-0.7-0.6c0-0.2,0.1-0.4,0.4-0.6c0.5-0.4,1.2-0.7,1.9-0.9c0.5,0,0.9,0.1,1.2,0.3
				c0.5,0.4,0.7,0.9,0.7,1.5v2.1c0,0.6,0.2,0.7,0.4,0.7c0.1,0,0.2,0,0.4-0.1l0.1,0.4L-319,64.6z M-320.1,61.5
				c-0.2,0.1-0.4,0.2-0.7,0.4c-0.4,0.2-0.6,0.4-0.6,0.8c0,0.7,0.5,0.9,0.7,0.9c0.2,0,0.3,0,0.5-0.2
				C-320.1,62.9-320.1,62.1-320.1,61.5z"/>
			<path class="st1" d="M-314.7,64.4c-0.2,0.1-0.4,0.1-0.5,0.1c-0.9,0-1.5-0.4-1.5-1.5v-3.3h-0.8l-0.1-0.1l0.3-0.5h0.5v-1
				c0.4-0.3,1-0.7,1.4-1l0.2,0.1c0,0.3,0,1,0,1.9h1.2c0.1,0.1,0.1,0.5-0.1,0.6h-1.1v2.9c0,0.9,0.4,1,0.6,1c0.2,0,0.4,0,0.6-0.1
				l0.1,0.4L-314.7,64.4z"/>
			<path class="st1" d="M-313.3,64.4V64c0.6-0.1,0.7-0.1,0.7-1v-2.3c0-0.8-0.1-0.9-0.6-0.9v-0.4c0.8-0.1,1.5-0.2,2.2-0.4
				c0,0.5,0,1,0,1.5V63c0,0.8,0,0.9,0.7,1v0.4H-313.3z M-311.9,58.2c-0.5,0-0.9-0.4-0.9-0.9c0-0.5,0.4-0.9,0.9-0.9
				c0.5,0,0.9,0.4,0.9,0.9C-311.1,57.8-311.4,58.2-311.9,58.2z"/>
			<path class="st1" d="M-306.9,59c1.7,0,2.8,1.3,2.8,2.7c0,1.9-1.4,2.9-2.8,2.9c-1.8,0-2.8-1.4-2.8-2.8
				C-309.8,60-308.2,59-306.9,59z M-307,59.4c-0.5,0-1,0.5-1,2c0,1.5,0.5,2.6,1.2,2.6c0.5,0,0.9-0.3,0.9-2.1
				C-305.8,60.3-306.3,59.4-307,59.4z"/>
			<path class="st1" d="M-299.9,64.4V64c0.5-0.1,0.5-0.1,0.5-0.9V61c0-0.9-0.4-1.1-0.8-1.1c-0.3,0-0.6,0.1-0.9,0.4v2.9
				c0,0.7,0,0.8,0.5,0.9v0.4h-2.8V64c0.6-0.1,0.7-0.1,0.7-0.9v-2.5c0-0.7-0.1-0.8-0.6-0.9v-0.4c0.7-0.1,1.5-0.2,2.2-0.5
				c0,0.2,0,0.6,0,0.9c0.2-0.2,0.5-0.3,0.8-0.5c0.4-0.2,0.6-0.3,0.9-0.3c1,0,1.6,0.7,1.6,1.9v2.3c0,0.7,0.1,0.8,0.6,0.9v0.4H-299.9z
				"/>
			<path class="st1" d="M-287.2,58.7c-0.1-0.6-0.4-1-0.5-1.2c-0.2-0.3-0.3-0.3-1-0.3h-0.8v5.6c0,1,0.1,1.1,1.2,1.2v0.4h-4V64
				c1-0.1,1.1-0.2,1.1-1.2v-5.6h-0.7c-0.7,0-0.9,0.1-1.1,0.4c-0.2,0.2-0.3,0.7-0.5,1.1h-0.5c0.1-0.9,0.2-1.8,0.2-2.4h0.4
				c0.2,0.3,0.3,0.3,0.7,0.3h4.8c0.3,0,0.5-0.1,0.7-0.3h0.3c0,0.5,0.1,1.6,0.1,2.3L-287.2,58.7z"/>
			<path class="st1" d="M-280,64.1c-0.7,0.1-1.5,0.3-2.3,0.4c0-0.3,0-0.6,0-0.8c-0.5,0.4-1,0.8-1.7,0.8c-1,0-1.6-0.6-1.6-1.7v-2.5
				c0-0.6-0.1-0.6-0.4-0.7l-0.3-0.1v-0.4c0.6,0,1.6-0.1,2.2-0.2c0,0.5,0,1.1,0,1.8v1.8c0,0.8,0.4,1,0.8,1c0.3,0,0.6-0.1,0.9-0.3
				v-2.9c0-0.6-0.1-0.6-0.4-0.7l-0.4-0.1v-0.4c0.7,0,1.7-0.1,2.3-0.2v3.9c0,0.6,0.1,0.8,0.5,0.8l0.3,0V64.1z"/>
			<path class="st1" d="M-276,64.4V64c0.5-0.1,0.5-0.1,0.5-0.9V61c0-0.9-0.4-1.1-0.8-1.1c-0.3,0-0.6,0.1-0.9,0.4v2.9
				c0,0.7,0,0.8,0.5,0.9v0.4h-2.8V64c0.6-0.1,0.7-0.1,0.7-0.9v-2.5c0-0.7-0.1-0.8-0.6-0.9v-0.4c0.7-0.1,1.5-0.2,2.2-0.5
				c0,0.2,0,0.6,0,0.9c0.2-0.2,0.5-0.3,0.8-0.5c0.4-0.2,0.6-0.3,0.9-0.3c1,0,1.6,0.7,1.6,1.9v2.3c0,0.7,0.1,0.8,0.6,0.9v0.4H-276z"
				/>
			<path class="st1" d="M-272.7,64.4V64c0.6-0.1,0.7-0.1,0.7-1v-2.3c0-0.8-0.1-0.9-0.6-0.9v-0.4c0.8-0.1,1.5-0.2,2.2-0.4
				c0,0.5,0,1,0,1.5V63c0,0.8,0,0.9,0.7,1v0.4H-272.7z M-271.3,58.2c-0.5,0-0.9-0.4-0.9-0.9c0-0.5,0.4-0.9,0.9-0.9
				c0.5,0,0.9,0.4,0.9,0.9C-270.4,57.8-270.8,58.2-271.3,58.2z"/>
			<path class="st1" d="M-265.7,60.7c-0.3-0.8-0.7-1.2-1.3-1.2c-0.3,0-0.6,0.2-0.6,0.6c0,0.4,0.3,0.6,0.9,0.9c1,0.4,1.6,0.8,1.6,1.8
				c0,1.2-1.1,1.8-2.2,1.8c-0.6,0-1.3-0.2-1.5-0.4c0-0.3-0.2-1.1-0.2-1.5l0.4-0.1c0.3,0.8,0.7,1.5,1.5,1.5c0.5,0,0.7-0.3,0.7-0.6
				c0-0.4-0.2-0.6-0.9-1c-0.8-0.4-1.6-0.8-1.6-1.8c0-0.9,0.8-1.7,2.1-1.7c0.6,0,1,0.1,1.3,0.2c0,0.3,0.1,1.1,0.2,1.4L-265.7,60.7z"
				/>
			<path class="st1" d="M-264.4,64.4V64c0.6-0.1,0.7-0.1,0.7-1v-2.3c0-0.8-0.1-0.9-0.6-0.9v-0.4c0.8-0.1,1.5-0.2,2.2-0.4
				c0,0.5,0,1,0,1.5V63c0,0.8,0,0.9,0.7,1v0.4H-264.4z M-263,58.2c-0.5,0-0.9-0.4-0.9-0.9c0-0.5,0.4-0.9,0.9-0.9
				c0.5,0,0.9,0.4,0.9,0.9C-262.1,57.8-262.5,58.2-263,58.2z"/>
			<path class="st1" d="M-256.1,63.3c-0.7,1.1-1.7,1.3-2.2,1.3c-1.6,0-2.5-1.2-2.5-2.6c0-0.8,0.4-1.7,0.9-2.2
				c0.5-0.5,1.2-0.8,1.9-0.8c1.2,0,2,1,2,2c0,0.2,0,0.4-0.2,0.4c-0.2,0.1-1.9,0.1-3.1,0.2c0,1.3,0.8,1.9,1.6,1.9
				c0.5,0,0.9-0.2,1.4-0.5L-256.1,63.3z M-258.3,59.4c-0.5,0-0.9,0.6-1,1.5c0.5,0,0.9,0,1.5,0c0.2,0,0.2,0,0.2-0.2
				C-257.6,60.1-257.8,59.4-258.3,59.4z"/>
			<path class="st1" d="M-252,64.4V64c0.5-0.1,0.5-0.1,0.5-0.9V61c0-0.9-0.4-1.1-0.8-1.1c-0.3,0-0.6,0.1-0.9,0.4v2.9
				c0,0.7,0,0.8,0.5,0.9v0.4h-2.8V64c0.6-0.1,0.7-0.1,0.7-0.9v-2.5c0-0.7-0.1-0.8-0.6-0.9v-0.4c0.7-0.1,1.5-0.2,2.2-0.5
				c0,0.2,0,0.6,0,0.9c0.2-0.2,0.5-0.3,0.8-0.5c0.4-0.2,0.6-0.3,0.9-0.3c1,0,1.6,0.7,1.6,1.9v2.3c0,0.7,0.1,0.8,0.6,0.9v0.4H-252z"
				/>
			<path class="st1" d="M-245.2,64.4V64c0.5-0.1,0.5-0.1,0.5-0.9V61c0-0.9-0.4-1.1-0.8-1.1c-0.3,0-0.6,0.1-0.9,0.4v2.9
				c0,0.7,0,0.8,0.5,0.9v0.4h-2.8V64c0.6-0.1,0.7-0.1,0.7-0.9v-2.5c0-0.7-0.1-0.8-0.6-0.9v-0.4c0.7-0.1,1.5-0.2,2.2-0.5
				c0,0.2,0,0.6,0,0.9c0.2-0.2,0.5-0.3,0.8-0.5c0.4-0.2,0.6-0.3,0.9-0.3c1,0,1.6,0.7,1.6,1.9v2.3c0,0.7,0.1,0.8,0.6,0.9v0.4H-245.2z
				"/>
			<path class="st1" d="M-237,63.3c-0.7,1.1-1.7,1.3-2.2,1.3c-1.6,0-2.5-1.2-2.5-2.6c0-0.8,0.4-1.7,0.9-2.2c0.5-0.5,1.2-0.8,1.9-0.8
				c1.2,0,2,1,2,2c0,0.2,0,0.4-0.2,0.4c-0.2,0.1-1.9,0.1-3.1,0.2c0,1.3,0.8,1.9,1.6,1.9c0.5,0,0.9-0.2,1.4-0.5L-237,63.3z
				 M-239.2,59.4c-0.5,0-0.9,0.6-1,1.5c0.5,0,0.9,0,1.5,0c0.2,0,0.2,0,0.2-0.2C-238.5,60.1-238.8,59.4-239.2,59.4z"/>
			<path class="st1" d="M-227.5,64.1c-0.3,0-1.4,0.2-2.4,0.5c0-0.2,0-0.5,0-0.7c-0.2,0.1-0.5,0.3-0.7,0.5c-0.3,0.2-0.5,0.2-0.6,0.2
				c-1,0-2.5-0.9-2.5-2.7c0-1.6,1.5-3,3.3-3c0.1,0,0.3,0,0.5,0v-1.4c0-0.6-0.1-0.7-0.8-0.8v-0.4c0.8-0.1,1.8-0.2,2.4-0.4
				c0,0.5,0,0.9,0,1.4v5.5c0,0.6,0.1,0.7,0.5,0.8l0.3,0V64.1z M-229.9,60.1c-0.1-0.3-0.4-0.6-0.9-0.6c-0.4,0-1.2,0.3-1.2,2
				c0,1.6,0.9,2.1,1.4,2.2c0.2,0,0.4,0,0.7-0.2V60.1z"/>
			<path class="st1" d="M-222.3,63.3c-0.7,1.1-1.7,1.3-2.2,1.3c-1.6,0-2.5-1.2-2.5-2.6c0-0.8,0.4-1.7,0.9-2.2
				c0.5-0.5,1.2-0.8,1.9-0.8c1.2,0,2,1,2,2c0,0.2,0,0.4-0.2,0.4c-0.2,0.1-1.9,0.1-3.1,0.2c0,1.3,0.8,1.9,1.6,1.9
				c0.5,0,0.9-0.2,1.4-0.5L-222.3,63.3z M-224.5,59.4c-0.5,0-0.9,0.6-1,1.5c0.5,0,0.9,0,1.5,0c0.2,0,0.2,0,0.2-0.2
				C-223.8,60.1-224,59.4-224.5,59.4z"/>
			<path class="st1" d="M-218.3,60.7c-0.3-0.8-0.7-1.2-1.3-1.2c-0.3,0-0.6,0.2-0.6,0.6c0,0.4,0.3,0.6,0.9,0.9c1,0.4,1.6,0.8,1.6,1.8
				c0,1.2-1.1,1.8-2.2,1.8c-0.6,0-1.3-0.2-1.5-0.4c0-0.3-0.2-1.1-0.2-1.5l0.4-0.1c0.3,0.8,0.7,1.5,1.5,1.5c0.5,0,0.7-0.3,0.7-0.6
				c0-0.4-0.2-0.6-0.9-1c-0.8-0.4-1.6-0.8-1.6-1.8c0-0.9,0.8-1.7,2.1-1.7c0.6,0,1,0.1,1.3,0.2c0,0.3,0.1,1.1,0.2,1.4L-218.3,60.7z"
				/>
			<path class="st1" d="M-206.1,61.1c-0.7,0.1-0.8,0.2-0.8,1V63c0,0.4,0,0.8,0.1,1.2c-0.6,0.1-1.9,0.4-2.9,0.4
				c-2.8,0-4.4-1.7-4.4-4.1c0-2.7,2.2-4.1,4.7-4.1c1,0,2,0.2,2.4,0.3c0,0.5,0.1,1.4,0.2,2.1l-0.5,0.1c-0.3-1-0.7-1.5-1.5-1.8
				c-0.3-0.1-0.7-0.1-1-0.1c-1.5,0-2.5,1.3-2.5,3.3c0,2.1,0.7,3.8,2.7,3.8c0.2,0,0.6,0,0.8-0.2c0.2-0.1,0.3-0.3,0.3-0.7v-1.1
				c0-0.8-0.2-0.9-1.2-1v-0.4h3.6V61.1z"/>
			<path class="st1" d="M-200.6,63.3c-0.7,1.1-1.7,1.3-2.2,1.3c-1.6,0-2.5-1.2-2.5-2.6c0-0.8,0.4-1.7,0.9-2.2
				c0.5-0.5,1.2-0.8,1.9-0.8c1.2,0,2,1,2,2c0,0.2,0,0.4-0.2,0.4c-0.2,0.1-1.9,0.1-3.1,0.2c0,1.3,0.8,1.9,1.6,1.9
				c0.5,0,0.9-0.2,1.4-0.5L-200.6,63.3z M-202.8,59.4c-0.5,0-0.9,0.6-1,1.5c0.5,0,0.9,0,1.5,0c0.2,0,0.2,0,0.2-0.2
				C-202.1,60.1-202.4,59.4-202.8,59.4z"/>
			<path class="st1" d="M-196.6,60.7c-0.3-0.8-0.7-1.2-1.3-1.2c-0.3,0-0.6,0.2-0.6,0.6c0,0.4,0.3,0.6,0.9,0.9c1,0.4,1.6,0.8,1.6,1.8
				c0,1.2-1.1,1.8-2.2,1.8c-0.6,0-1.3-0.2-1.5-0.4c0-0.3-0.2-1.1-0.2-1.5l0.4-0.1c0.3,0.8,0.7,1.5,1.5,1.5c0.5,0,0.7-0.3,0.7-0.6
				c0-0.4-0.2-0.6-0.9-1c-0.8-0.4-1.6-0.8-1.6-1.8c0-0.9,0.8-1.7,2.1-1.7c0.6,0,1,0.1,1.3,0.2c0,0.3,0.1,1.1,0.2,1.4L-196.6,60.7z"
				/>
			<path class="st1" d="M-192.6,64.4c-0.2,0.1-0.4,0.1-0.5,0.1c-0.9,0-1.5-0.4-1.5-1.5v-3.3h-0.8l-0.1-0.1l0.3-0.5h0.5v-1
				c0.4-0.3,1-0.7,1.4-1l0.2,0.1c0,0.3,0,1,0,1.9h1.2c0.1,0.1,0.1,0.5-0.1,0.6h-1.1v2.9c0,0.9,0.4,1,0.6,1c0.2,0,0.4,0,0.6-0.1
				l0.1,0.4L-192.6,64.4z"/>
			<path class="st1" d="M-191.2,64.4V64c0.6-0.1,0.7-0.1,0.7-1v-2.3c0-0.8-0.1-0.9-0.6-0.9v-0.4c0.8-0.1,1.5-0.2,2.2-0.4
				c0,0.5,0,1,0,1.5V63c0,0.8,0,0.9,0.7,1v0.4H-191.2z M-189.8,58.2c-0.5,0-0.9-0.4-0.9-0.9c0-0.5,0.4-0.9,0.9-0.9
				c0.5,0,0.9,0.4,0.9,0.9C-189,57.8-189.3,58.2-189.8,58.2z"/>
			<path class="st1" d="M-184.8,59c1.7,0,2.8,1.3,2.8,2.7c0,1.9-1.4,2.9-2.8,2.9c-1.8,0-2.8-1.4-2.8-2.8
				C-187.7,60-186.1,59-184.8,59z M-184.9,59.4c-0.5,0-1,0.5-1,2c0,1.5,0.5,2.6,1.2,2.6c0.5,0,0.9-0.3,0.9-2.1
				C-183.7,60.3-184.2,59.4-184.9,59.4z"/>
			<path class="st1" d="M-177.8,64.4V64c0.5-0.1,0.5-0.1,0.5-0.9V61c0-0.9-0.4-1.1-0.8-1.1c-0.3,0-0.6,0.1-0.9,0.4v2.9
				c0,0.7,0,0.8,0.5,0.9v0.4h-2.8V64c0.6-0.1,0.7-0.1,0.7-0.9v-2.5c0-0.7-0.1-0.8-0.6-0.9v-0.4c0.7-0.1,1.5-0.2,2.2-0.5
				c0,0.2,0,0.6,0,0.9c0.2-0.2,0.5-0.3,0.8-0.5c0.4-0.2,0.6-0.3,0.9-0.3c1,0,1.6,0.7,1.6,1.9v2.3c0,0.7,0.1,0.8,0.6,0.9v0.4H-177.8z
				"/>
			<path class="st1" d="M-171,64.4V64c0.5-0.1,0.5-0.1,0.5-0.9V61c0-0.9-0.4-1.1-0.8-1.1c-0.3,0-0.6,0.1-0.9,0.4v2.9
				c0,0.7,0,0.8,0.5,0.9v0.4h-2.8V64c0.6-0.1,0.7-0.1,0.7-0.9v-2.5c0-0.7-0.1-0.8-0.6-0.9v-0.4c0.7-0.1,1.5-0.2,2.2-0.5
				c0,0.2,0,0.6,0,0.9c0.2-0.2,0.5-0.3,0.8-0.5c0.4-0.2,0.6-0.3,0.9-0.3c1,0,1.6,0.7,1.6,1.9v2.3c0,0.7,0.1,0.8,0.6,0.9v0.4H-171z"
				/>
			<path class="st1" d="M-163.6,64.6c-0.3,0-0.6-0.1-0.7-0.3c-0.2-0.1-0.3-0.3-0.3-0.4c-0.5,0.3-1,0.7-1.3,0.7c-1,0-1.6-0.8-1.6-1.5
				c0-0.6,0.3-0.9,0.9-1.2c0.7-0.3,1.7-0.6,1.9-0.8v-0.5c0-0.6-0.2-1-0.7-1c-0.2,0-0.4,0.1-0.5,0.2c-0.1,0.2-0.2,0.4-0.3,0.8
				c-0.1,0.3-0.3,0.4-0.5,0.4c-0.3,0-0.7-0.3-0.7-0.6c0-0.2,0.1-0.4,0.4-0.6c0.5-0.4,1.2-0.7,1.9-0.9c0.5,0,0.9,0.1,1.2,0.3
				c0.5,0.4,0.7,0.9,0.7,1.5v2.1c0,0.6,0.2,0.7,0.4,0.7c0.1,0,0.2,0,0.4-0.1l0.1,0.4L-163.6,64.6z M-164.7,61.5
				c-0.2,0.1-0.4,0.2-0.7,0.4c-0.4,0.2-0.6,0.4-0.6,0.8c0,0.7,0.5,0.9,0.7,0.9c0.2,0,0.3,0,0.5-0.2
				C-164.7,62.9-164.7,62.1-164.7,61.5z"/>
			<path class="st1" d="M-161.9,64.4V64c0.6-0.1,0.7-0.1,0.7-1v-2.3c0-0.8-0.1-0.9-0.6-0.9v-0.4c0.8-0.1,1.5-0.2,2.2-0.4
				c0,0.5,0,1,0,1.5V63c0,0.8,0,0.9,0.7,1v0.4H-161.9z M-160.5,58.2c-0.5,0-0.9-0.4-0.9-0.9c0-0.5,0.4-0.9,0.9-0.9
				c0.5,0,0.9,0.4,0.9,0.9C-159.7,57.8-160,58.2-160.5,58.2z"/>
			<path class="st1" d="M-155.2,64.4h-3.2V64c0.6-0.1,0.7-0.1,0.7-0.9v-2.6c0-0.6,0-0.7-0.6-0.8v-0.4c0.7-0.1,1.4-0.2,2.2-0.5
				c0,0.4,0,0.9,0,1.3c0.5-0.8,1-1.3,1.5-1.3c0.4,0,0.8,0.3,0.8,0.7c0,0.6-0.4,0.9-0.6,1c-0.2,0.1-0.3,0-0.4-0.1
				c-0.2-0.2-0.4-0.4-0.6-0.4c-0.2,0-0.5,0.2-0.7,0.6v2.3c0,0.7,0.1,0.8,0.9,0.9V64.4z"/>
			<path class="st1" d="M-148.8,63.3c-0.7,1.1-1.7,1.3-2.2,1.3c-1.6,0-2.5-1.2-2.5-2.6c0-0.8,0.4-1.7,0.9-2.2
				c0.5-0.5,1.2-0.8,1.9-0.8c1.2,0,2,1,2,2c0,0.2,0,0.4-0.2,0.4c-0.2,0.1-1.9,0.1-3.1,0.2c0,1.3,0.8,1.9,1.6,1.9
				c0.5,0,0.9-0.2,1.4-0.5L-148.8,63.3z M-150.9,59.4c-0.5,0-0.9,0.6-1,1.5c0.5,0,0.9,0,1.5,0c0.2,0,0.2,0,0.2-0.2
				C-150.2,60.1-150.5,59.4-150.9,59.4z"/>
			<path class="st1" d="M-144.7,60.7c-0.3-0.8-0.7-1.2-1.3-1.2c-0.3,0-0.6,0.2-0.6,0.6c0,0.4,0.3,0.6,0.9,0.9c1,0.4,1.6,0.8,1.6,1.8
				c0,1.2-1.1,1.8-2.2,1.8c-0.6,0-1.3-0.2-1.5-0.4c0-0.3-0.2-1.1-0.2-1.5l0.4-0.1c0.3,0.8,0.7,1.5,1.5,1.5c0.5,0,0.7-0.3,0.7-0.6
				c0-0.4-0.2-0.6-0.9-1c-0.8-0.4-1.6-0.8-1.6-1.8c0-0.9,0.8-1.7,2.1-1.7c0.6,0,1,0.1,1.3,0.2c0,0.3,0.1,1.1,0.2,1.4L-144.7,60.7z"
				/>
			<path class="st1" d="M-134.5,64.1c-0.3,0-1.4,0.2-2.4,0.5c0-0.2,0-0.5,0-0.7c-0.2,0.1-0.5,0.3-0.7,0.5c-0.3,0.2-0.5,0.2-0.6,0.2
				c-1,0-2.5-0.9-2.5-2.7c0-1.6,1.5-3,3.3-3c0.1,0,0.3,0,0.5,0v-1.4c0-0.6-0.1-0.7-0.8-0.8v-0.4c0.8-0.1,1.8-0.2,2.4-0.4
				c0,0.5,0,0.9,0,1.4v5.5c0,0.6,0.1,0.7,0.5,0.8l0.3,0V64.1z M-136.9,60.1c-0.1-0.3-0.4-0.6-0.9-0.6c-0.4,0-1.2,0.3-1.2,2
				c0,1.6,0.9,2.1,1.4,2.2c0.2,0,0.4,0,0.7-0.2V60.1z"/>
			<path class="st1" d="M-129.3,63.3c-0.7,1.1-1.7,1.3-2.2,1.3c-1.6,0-2.5-1.2-2.5-2.6c0-0.8,0.4-1.7,0.9-2.2
				c0.5-0.5,1.2-0.8,1.9-0.8c1.2,0,2,1,2,2c0,0.2,0,0.4-0.2,0.4c-0.2,0.1-1.9,0.1-3.1,0.2c0,1.3,0.8,1.9,1.6,1.9
				c0.5,0,0.9-0.2,1.4-0.5L-129.3,63.3z M-131.5,59.4c-0.5,0-0.9,0.6-1,1.5c0.5,0,0.9,0,1.5,0c0.2,0,0.2,0,0.2-0.2
				C-130.8,60.1-131,59.4-131.5,59.4z"/>
			<path class="st1" d="M-125.3,60.7c-0.3-0.8-0.7-1.2-1.3-1.2c-0.3,0-0.6,0.2-0.6,0.6c0,0.4,0.3,0.6,0.9,0.9c1,0.4,1.6,0.8,1.6,1.8
				c0,1.2-1.1,1.8-2.2,1.8c-0.6,0-1.3-0.2-1.5-0.4c0-0.3-0.2-1.1-0.2-1.5l0.4-0.1c0.3,0.8,0.7,1.5,1.5,1.5c0.5,0,0.7-0.3,0.7-0.6
				c0-0.4-0.2-0.6-0.9-1c-0.8-0.4-1.6-0.8-1.6-1.8c0-0.9,0.8-1.7,2.1-1.7c0.6,0,1,0.1,1.3,0.2c0,0.3,0.1,1.1,0.2,1.4L-125.3,60.7z"
				/>
			<path class="st1" d="M-114.6,62.4c-0.1,0.3-0.4,1.7-0.5,2h-6.2V64c1.1-0.1,1.2-0.2,1.2-1.2v-4.6c0-1-0.1-1.1-1-1.2v-0.4h3.9
				c1.3,0,1.7,0,1.8,0c0,0.2,0.1,1.2,0.1,1.9l-0.5,0.1c-0.1-0.4-0.3-0.9-0.5-1.1c-0.2-0.2-0.4-0.3-1-0.3h-0.8c-0.5,0-0.5,0-0.5,0.4
				v2.5h1.2c0.7,0,0.8-0.2,1-1h0.5v2.7h-0.5c-0.2-0.9-0.3-1-1-1h-1.2v2.1c0,0.8,0,1.1,0.8,1.1h0.9c0.7,0,0.9-0.1,1.1-0.4
				c0.3-0.3,0.5-0.8,0.7-1.2L-114.6,62.4z"/>
			<path class="st1" d="M-111.4,64.4c-0.2,0.1-0.4,0.1-0.5,0.1c-0.9,0-1.5-0.4-1.5-1.5v-3.3h-0.8l-0.1-0.1l0.3-0.5h0.5v-1
				c0.4-0.3,1-0.7,1.4-1l0.2,0.1c0,0.3,0,1,0,1.9h1.2c0.1,0.1,0.1,0.5-0.1,0.6h-1.1v2.9c0,0.9,0.4,1,0.6,1c0.2,0,0.4,0,0.6-0.1
				l0.1,0.4L-111.4,64.4z"/>
			<path class="st1" d="M-105.9,64.6c-0.3,0-0.6-0.1-0.7-0.3c-0.2-0.1-0.3-0.3-0.3-0.4c-0.5,0.3-1,0.7-1.3,0.7c-1,0-1.6-0.8-1.6-1.5
				c0-0.6,0.3-0.9,0.9-1.2c0.7-0.3,1.7-0.6,1.9-0.8v-0.5c0-0.6-0.2-1-0.7-1c-0.2,0-0.4,0.1-0.5,0.2c-0.1,0.2-0.2,0.4-0.3,0.8
				c-0.1,0.3-0.3,0.4-0.5,0.4c-0.3,0-0.7-0.3-0.7-0.6c0-0.2,0.1-0.4,0.4-0.6c0.5-0.4,1.2-0.7,1.9-0.9c0.5,0,0.9,0.1,1.2,0.3
				c0.5,0.4,0.7,0.9,0.7,1.5v2.1c0,0.6,0.2,0.7,0.4,0.7c0.1,0,0.2,0,0.4-0.1l0.1,0.4L-105.9,64.6z M-107,61.5
				c-0.2,0.1-0.4,0.2-0.7,0.4c-0.4,0.2-0.6,0.4-0.6,0.8c0,0.7,0.5,0.9,0.7,0.9c0.2,0,0.3,0,0.5-0.2C-107,62.9-107,62.1-107,61.5z"/>
			<path class="st1" d="M-101.8,59.2c0.3-0.2,0.6-0.2,0.9-0.2c1.5,0,2.4,1.2,2.4,2.5c0,1.7-1.4,3.1-3.2,3.1c-0.7,0-1.3-0.1-2.1-0.4
				c0-0.3,0-0.6,0-0.9v-5.6c0-0.7-0.1-0.8-0.7-0.8v-0.4c0.6-0.1,1.6-0.2,2.3-0.4c0,0.4,0,0.9,0,1.3v2.1L-101.8,59.2z M-102.2,63.1
				c0,0.2,0,0.3,0.1,0.4c0.1,0.2,0.4,0.6,0.9,0.6c0.6,0,1.1-0.7,1.1-2.2c0-1.5-0.8-2.1-1.5-2.1c-0.3,0-0.4,0-0.6,0.1V63.1z"/>
			<path class="st1" d="M-97.9,64.4V64c0.7-0.1,0.7-0.2,0.7-0.9v-5.5c0-0.6-0.1-0.7-0.7-0.8v-0.4c0.8-0.1,1.7-0.2,2.2-0.4
				c0,0.5,0,1.1,0,1.6v5.4c0,0.8,0,0.8,0.7,0.9v0.4H-97.9z"/>
			<path class="st1" d="M-94.3,64.4V64c0.6-0.1,0.7-0.1,0.7-1v-2.3c0-0.8-0.1-0.9-0.6-0.9v-0.4c0.8-0.1,1.5-0.2,2.2-0.4
				c0,0.5,0,1,0,1.5V63c0,0.8,0,0.9,0.7,1v0.4H-94.3z M-92.9,58.2c-0.5,0-0.9-0.4-0.9-0.9c0-0.5,0.4-0.9,0.9-0.9
				c0.5,0,0.9,0.4,0.9,0.9C-92.1,57.8-92.5,58.2-92.9,58.2z"/>
			<path class="st1" d="M-87.4,60.7c-0.3-0.8-0.7-1.2-1.3-1.2c-0.3,0-0.6,0.2-0.6,0.6c0,0.4,0.3,0.6,0.9,0.9c1,0.4,1.6,0.8,1.6,1.8
				c0,1.2-1.1,1.8-2.2,1.8c-0.6,0-1.3-0.2-1.5-0.4c0-0.3-0.2-1.1-0.2-1.5l0.4-0.1c0.3,0.8,0.7,1.5,1.5,1.5c0.5,0,0.7-0.3,0.7-0.6
				c0-0.4-0.2-0.6-0.9-1c-0.8-0.4-1.6-0.8-1.6-1.8c0-0.9,0.8-1.7,2.1-1.7c0.6,0,1,0.1,1.3,0.2c0,0.3,0.1,1.1,0.2,1.4L-87.4,60.7z"/>
			<path class="st1" d="M-82.7,60.7c-0.3-0.8-0.7-1.2-1.3-1.2c-0.3,0-0.6,0.2-0.6,0.6c0,0.4,0.3,0.6,0.9,0.9c1,0.4,1.6,0.8,1.6,1.8
				c0,1.2-1.1,1.8-2.2,1.8c-0.6,0-1.3-0.2-1.5-0.4c0-0.3-0.2-1.1-0.2-1.5l0.4-0.1c0.3,0.8,0.7,1.5,1.5,1.5c0.5,0,0.7-0.3,0.7-0.6
				c0-0.4-0.2-0.6-0.9-1c-0.8-0.4-1.6-0.8-1.6-1.8c0-0.9,0.8-1.7,2.1-1.7c0.6,0,1,0.1,1.3,0.2c0,0.3,0.1,1.1,0.2,1.4L-82.7,60.7z"/>
			<path class="st1" d="M-76.6,63.3c-0.7,1.1-1.7,1.3-2.2,1.3c-1.6,0-2.5-1.2-2.5-2.6c0-0.8,0.4-1.7,0.9-2.2
				c0.5-0.5,1.2-0.8,1.9-0.8c1.2,0,2,1,2,2c0,0.2,0,0.4-0.2,0.4c-0.2,0.1-1.9,0.1-3.1,0.2c0,1.3,0.8,1.9,1.6,1.9
				c0.5,0,0.9-0.2,1.4-0.5L-76.6,63.3z M-78.8,59.4c-0.5,0-0.9,0.6-1,1.5c0.5,0,0.9,0,1.5,0c0.2,0,0.2,0,0.2-0.2
				C-78.1,60.1-78.3,59.4-78.8,59.4z"/>
			<path class="st1" d="M-69.3,64.4V64c0.5-0.1,0.6-0.1,0.6-0.9v-2.1c0-1-0.5-1.2-0.8-1.2c-0.2,0-0.5,0.1-0.9,0.4c0,0.1,0,0.3,0,0.5
				v2.4c0,0.7,0,0.7,0.6,0.8v0.4h-2.7V64c0.5-0.1,0.6-0.1,0.6-0.8V61c0-0.9-0.3-1.1-0.8-1.1c-0.3,0-0.6,0.1-0.9,0.4v3
				c0,0.7,0.1,0.7,0.5,0.8v0.4h-2.7V64c0.7-0.1,0.7-0.1,0.7-0.9v-2.5c0-0.7,0-0.8-0.6-0.9v-0.4c0.7-0.1,1.4-0.2,2.1-0.5
				c0,0.3,0,0.6,0,0.9c0.3-0.2,0.5-0.3,0.7-0.5c0.4-0.2,0.7-0.4,1-0.4c0.7,0,1.1,0.4,1.3,0.9c0.3-0.2,0.5-0.4,0.8-0.6
				c0.3-0.2,0.6-0.3,1-0.3c1,0,1.6,0.7,1.6,1.9v2.3c0,0.7,0.1,0.7,0.6,0.8v0.4H-69.3z"/>
			<path class="st1" d="M-61.2,63.3c-0.7,1.1-1.7,1.3-2.2,1.3c-1.6,0-2.5-1.2-2.5-2.6c0-0.8,0.4-1.7,0.9-2.2
				c0.5-0.5,1.2-0.8,1.9-0.8c1.2,0,2,1,2,2c0,0.2,0,0.4-0.2,0.4c-0.2,0.1-1.9,0.1-3.1,0.2c0,1.3,0.8,1.9,1.6,1.9
				c0.5,0,0.9-0.2,1.4-0.5L-61.2,63.3z M-63.4,59.4c-0.5,0-0.9,0.6-1,1.5c0.5,0,0.9,0,1.5,0c0.2,0,0.2,0,0.2-0.2
				C-62.7,60.1-62.9,59.4-63.4,59.4z"/>
			<path class="st1" d="M-57.1,64.4V64c0.5-0.1,0.5-0.1,0.5-0.9V61c0-0.9-0.4-1.1-0.8-1.1c-0.3,0-0.6,0.1-0.9,0.4v2.9
				c0,0.7,0,0.8,0.5,0.9v0.4h-2.8V64c0.6-0.1,0.7-0.1,0.7-0.9v-2.5c0-0.7-0.1-0.8-0.6-0.9v-0.4c0.7-0.1,1.5-0.2,2.2-0.5
				c0,0.2,0,0.6,0,0.9c0.2-0.2,0.5-0.3,0.8-0.5c0.4-0.2,0.6-0.3,0.9-0.3c1,0,1.6,0.7,1.6,1.9v2.3c0,0.7,0.1,0.8,0.6,0.9v0.4H-57.1z"
				/>
			<path class="st1" d="M-51.1,64.4c-0.2,0.1-0.4,0.1-0.5,0.1c-0.9,0-1.5-0.4-1.5-1.5v-3.3h-0.8l-0.1-0.1l0.3-0.5h0.5v-1
				c0.4-0.3,1-0.7,1.4-1l0.2,0.1c0,0.3,0,1,0,1.9h1.2c0.1,0.1,0.1,0.5-0.1,0.6h-1.1v2.9c0,0.9,0.4,1,0.6,1c0.2,0,0.4,0,0.6-0.1
				l0.1,0.4L-51.1,64.4z"/>
			<path class="st1" d="M-46.3,60.7c-0.3-0.8-0.7-1.2-1.3-1.2c-0.3,0-0.6,0.2-0.6,0.6c0,0.4,0.3,0.6,0.9,0.9c1,0.4,1.6,0.8,1.6,1.8
				c0,1.2-1.1,1.8-2.2,1.8c-0.6,0-1.3-0.2-1.5-0.4c0-0.3-0.2-1.1-0.2-1.5l0.4-0.1c0.3,0.8,0.7,1.5,1.5,1.5c0.5,0,0.7-0.3,0.7-0.6
				c0-0.4-0.2-0.6-0.9-1c-0.8-0.4-1.6-0.8-1.6-1.8c0-0.9,0.8-1.7,2.1-1.7c0.6,0,1,0.1,1.3,0.2c0,0.3,0.1,1.1,0.2,1.4L-46.3,60.7z"/>
			<path class="st1" d="M-34,57.1c-0.8,0.1-1,0.3-1,0.7c0,0.4-0.1,0.8-0.1,1.6V61c0,1-0.2,2.1-0.9,2.8c-0.6,0.6-1.4,0.8-2.3,0.8
				c-0.8,0-1.6-0.2-2.1-0.6c-0.7-0.5-1-1.3-1-2.6v-3c0-1.1-0.1-1.2-1-1.3v-0.4h3.7v0.4c-0.9,0.1-1,0.2-1,1.3v3.2
				c0,1.3,0.7,2.2,1.9,2.2c1.4,0,2.1-1.1,2.1-2.9v-1.5c0-0.8,0-1.3-0.1-1.6c0-0.6-0.4-0.7-1.2-0.7v-0.4h3V57.1z"/>
			<path class="st1" d="M-30.2,64.4V64c0.5-0.1,0.5-0.1,0.5-0.9V61c0-0.9-0.4-1.1-0.8-1.1c-0.3,0-0.6,0.1-0.9,0.4v2.9
				c0,0.7,0,0.8,0.5,0.9v0.4h-2.8V64c0.6-0.1,0.7-0.1,0.7-0.9v-2.5c0-0.7-0.1-0.8-0.6-0.9v-0.4c0.7-0.1,1.5-0.2,2.2-0.5
				c0,0.2,0,0.6,0,0.9c0.2-0.2,0.5-0.3,0.8-0.5c0.4-0.2,0.6-0.3,0.9-0.3c1,0,1.6,0.7,1.6,1.9v2.3c0,0.7,0.1,0.8,0.6,0.9v0.4H-30.2z"
				/>
			<path class="st1" d="M-26.8,64.4V64c0.6-0.1,0.7-0.1,0.7-1v-2.3c0-0.8-0.1-0.9-0.6-0.9v-0.4c0.8-0.1,1.5-0.2,2.2-0.4
				c0,0.5,0,1,0,1.5V63c0,0.8,0,0.9,0.7,1v0.4H-26.8z M-25.4,58.2c-0.5,0-0.9-0.4-0.9-0.9c0-0.5,0.4-0.9,0.9-0.9
				c0.5,0,0.9,0.4,0.9,0.9C-24.5,57.8-24.9,58.2-25.4,58.2z"/>
			<path class="st1" d="M-17.8,59.5c-0.6,0.1-0.7,0.2-1,0.8c-0.4,1-1,2.4-1.8,4.2h-0.5c-0.6-1.5-1.2-2.9-1.7-4.3
				c-0.2-0.5-0.3-0.7-1-0.8v-0.4h3v0.4c-0.5,0.1-0.6,0.2-0.5,0.6c0.3,0.8,0.7,2,0.9,2.5c0.2-0.5,0.6-1.6,0.9-2.4
				c0.1-0.4,0.1-0.6-0.6-0.7v-0.4h2.3V59.5z"/>
			<path class="st1" d="M-13,63.3c-0.7,1.1-1.7,1.3-2.2,1.3c-1.6,0-2.5-1.2-2.5-2.6c0-0.8,0.4-1.7,0.9-2.2c0.5-0.5,1.2-0.8,1.9-0.8
				c1.2,0,2,1,2,2c0,0.2,0,0.4-0.2,0.4c-0.2,0.1-1.9,0.1-3.1,0.2c0,1.3,0.8,1.9,1.6,1.9c0.5,0,0.9-0.2,1.4-0.5L-13,63.3z
				 M-15.1,59.4c-0.5,0-0.9,0.6-1,1.5c0.5,0,0.9,0,1.5,0c0.2,0,0.2,0,0.2-0.2C-14.4,60.1-14.7,59.4-15.1,59.4z"/>
			<path class="st1" d="M-9.1,64.4h-3.2V64c0.6-0.1,0.7-0.1,0.7-0.9v-2.6c0-0.6,0-0.7-0.6-0.8v-0.4c0.7-0.1,1.4-0.2,2.2-0.5
				c0,0.4,0,0.9,0,1.3c0.5-0.8,1-1.3,1.5-1.3c0.4,0,0.8,0.3,0.8,0.7c0,0.6-0.4,0.9-0.6,1c-0.2,0.1-0.3,0-0.4-0.1
				c-0.2-0.2-0.4-0.4-0.6-0.4c-0.2,0-0.5,0.2-0.7,0.6v2.3c0,0.7,0.1,0.8,0.9,0.9V64.4z"/>
			<path class="st1" d="M-4,60.7c-0.3-0.8-0.7-1.2-1.3-1.2c-0.3,0-0.6,0.2-0.6,0.6c0,0.4,0.3,0.6,0.9,0.9c1,0.4,1.6,0.8,1.6,1.8
				c0,1.2-1.1,1.8-2.2,1.8c-0.6,0-1.3-0.2-1.5-0.4c0-0.3-0.2-1.1-0.2-1.5l0.4-0.1c0.3,0.8,0.7,1.5,1.5,1.5c0.5,0,0.7-0.3,0.7-0.6
				c0-0.4-0.2-0.6-0.9-1c-0.8-0.4-1.6-0.8-1.6-1.8c0-0.9,0.8-1.7,2.1-1.7c0.6,0,1,0.1,1.3,0.2c0,0.3,0.1,1.1,0.2,1.4L-4,60.7z"/>
			<path class="st1" d="M-2.7,64.4V64C-2,63.9-2,63.9-2,63v-2.3c0-0.8-0.1-0.9-0.6-0.9v-0.4c0.8-0.1,1.5-0.2,2.2-0.4
				c0,0.5,0,1,0,1.5V63c0,0.8,0,0.9,0.7,1v0.4H-2.7z M-1.3,58.2c-0.5,0-0.9-0.4-0.9-0.9c0-0.5,0.4-0.9,0.9-0.9
				c0.5,0,0.9,0.4,0.9,0.9C-0.4,57.8-0.8,58.2-1.3,58.2z"/>
			<path class="st1" d="M3.5,64.4c-0.2,0.1-0.4,0.1-0.5,0.1c-0.9,0-1.5-0.4-1.5-1.5v-3.3H0.8l-0.1-0.1L1,59.1h0.5v-1
				c0.4-0.3,1-0.7,1.4-1l0.2,0.1c0,0.3,0,1,0,1.9h1.2c0.1,0.1,0.1,0.5-0.1,0.6H3.1v2.9c0,0.9,0.4,1,0.6,1c0.2,0,0.4,0,0.6-0.1
				L4.4,64L3.5,64.4z"/>
			<path class="st1" d="M8.9,64.6c-0.3,0-0.6-0.1-0.7-0.3C8,64.2,7.9,64,7.9,63.9c-0.5,0.3-1,0.7-1.3,0.7c-1,0-1.6-0.8-1.6-1.5
				c0-0.6,0.3-0.9,0.9-1.2c0.7-0.3,1.7-0.6,1.9-0.8v-0.5c0-0.6-0.2-1-0.7-1c-0.2,0-0.4,0.1-0.5,0.2c-0.1,0.2-0.2,0.4-0.3,0.8
				C6.2,60.9,6,61,5.8,61c-0.3,0-0.7-0.3-0.7-0.6c0-0.2,0.1-0.4,0.4-0.6C6,59.4,6.7,59.1,7.4,59c0.5,0,0.9,0.1,1.2,0.3
				c0.5,0.4,0.7,0.9,0.7,1.5v2.1c0,0.6,0.2,0.7,0.4,0.7c0.1,0,0.2,0,0.4-0.1l0.1,0.4L8.9,64.6z M7.8,61.5c-0.2,0.1-0.4,0.2-0.7,0.4
				c-0.4,0.2-0.6,0.4-0.6,0.8c0,0.7,0.5,0.9,0.7,0.9c0.2,0,0.3,0,0.5-0.2C7.8,62.9,7.8,62.1,7.8,61.5z"/>
			<path class="st1" d="M10.6,64.4V64c0.6-0.1,0.7-0.1,0.7-1v-2.3c0-0.8-0.1-0.9-0.6-0.9v-0.4c0.8-0.1,1.5-0.2,2.2-0.4
				c0,0.5,0,1,0,1.5V63c0,0.8,0,0.9,0.7,1v0.4H10.6z M12,58.2c-0.5,0-0.9-0.4-0.9-0.9c0-0.5,0.4-0.9,0.9-0.9c0.5,0,0.9,0.4,0.9,0.9
				C12.9,57.8,12.5,58.2,12,58.2z"/>
			<path class="st1" d="M17.3,64.4h-3.2V64c0.6-0.1,0.7-0.1,0.7-0.9v-2.6c0-0.6,0-0.7-0.6-0.8v-0.4c0.7-0.1,1.4-0.2,2.2-0.5
				c0,0.4,0,0.9,0,1.3c0.5-0.8,1-1.3,1.5-1.3c0.4,0,0.8,0.3,0.8,0.7c0,0.6-0.4,0.9-0.6,1c-0.2,0.1-0.3,0-0.4-0.1
				c-0.2-0.2-0.4-0.4-0.6-0.4c-0.2,0-0.5,0.2-0.7,0.6v2.3c0,0.7,0.1,0.8,0.9,0.9V64.4z"/>
			<path class="st1" d="M23.8,63.3c-0.7,1.1-1.7,1.3-2.2,1.3C20,64.6,19,63.4,19,62c0-0.8,0.4-1.7,0.9-2.2c0.5-0.5,1.2-0.8,1.9-0.8
				c1.2,0,2,1,2,2c0,0.2,0,0.4-0.2,0.4c-0.2,0.1-1.9,0.1-3.1,0.2c0,1.3,0.8,1.9,1.6,1.9c0.5,0,0.9-0.2,1.4-0.5L23.8,63.3z
				 M21.6,59.4c-0.5,0-0.9,0.6-1,1.5c0.5,0,0.9,0,1.5,0c0.2,0,0.2,0,0.2-0.2C22.3,60.1,22,59.4,21.6,59.4z"/>
			<path class="st1" d="M27.8,60.7c-0.3-0.8-0.7-1.2-1.3-1.2c-0.3,0-0.6,0.2-0.6,0.6c0,0.4,0.3,0.6,0.9,0.9c1,0.4,1.6,0.8,1.6,1.8
				c0,1.2-1.1,1.8-2.2,1.8c-0.6,0-1.3-0.2-1.5-0.4c0-0.3-0.2-1.1-0.2-1.5l0.4-0.1c0.3,0.8,0.7,1.5,1.5,1.5c0.5,0,0.7-0.3,0.7-0.6
				c0-0.4-0.2-0.6-0.9-1c-0.8-0.4-1.6-0.8-1.6-1.8c0-0.9,0.8-1.7,2.1-1.7c0.6,0,1,0.1,1.3,0.2c0,0.3,0.1,1.1,0.2,1.4L27.8,60.7z"/>
		</g>
	</g>
	
		<text transform="matrix(1 0 0 1 -303.1875 34.7041)" style="display:inline;fill:#6C87BA; font-family:'ArialMT'; font-size:18.9051px;">    </text>
</g>
<g id="Layer_3">
</g>
</svg>
